<?xml version="1.0" encoding="utf-8"?>
<!-- Generator: Adobe Illustrator 21.0.0, SVG Export Plug-In . SVG Version: 6.00 Build 0)  -->
<svg version="1.1" id="Layer_1" xmlns="http://www.w3.org/2000/svg" xmlns:xlink="http://www.w3.org/1999/xlink" x="0px" y="0px"
	 viewBox="0 0 512 512" style="enable-background:new 0 0 512 512;" xml:space="preserve">
<g>
	<g>
		<g>
			<path d="M501.2,106.6h-235l-31-58.3c-1.9-3.5-5.5-5.7-9.5-5.7h-215C4.8,42.7,0,47.5,0,53.4v405.2c0,5.9,4.8,10.8,10.8,10.8h490.5
				c5.9,0,10.8-4.8,10.8-10.8V117.4C512,111.4,507.2,106.6,501.2,106.6z M21.5,447.8V64.2h197.7l31,58.3c1.9,3.5,5.5,5.7,9.5,5.7
				h230.7v319.6L21.5,447.8L21.5,447.8z"/>
			<path d="M163.3,106.8h0.3c5.9,0,10.8-4.8,10.8-10.8c0-5.9-4.8-10.8-10.8-10.8h-0.3c-5.9,0-10.8,4.8-10.8,10.8
				C152.6,102,157.4,106.8,163.3,106.8z"/>
			<path d="M132.7,85.3H53.4c-5.9,0-10.8,4.8-10.8,10.8c0,5.9,4.8,10.8,10.8,10.8h79.3c5.9,0,10.8-4.8,10.8-10.8
				C143.5,90.1,138.7,85.3,132.7,85.3z"/>
			<path d="M358.2,202.4c-32.8-9-67.1-23.5-96.7-41c-3.4-2-7.6-2-11,0c-30.9,18.2-62.5,31.7-96.7,41c-4.7,1.3-7.9,5.5-7.9,10.4v52.7
				c0,56.2,25.9,93.4,47.7,114.7c25.1,24.6,52.1,36,62.4,36s37.3-11.4,62.4-36c21.8-21.3,47.7-58.5,47.7-114.7v-52.7
				C366.1,207.9,362.9,203.6,358.2,202.4z M344.6,265.4c0,48.1-21.9,80-40.3,98.4c-21.7,21.7-43.9,30.3-48.3,30.8
				c-4.4-0.5-26.6-9.1-48.3-30.8c-18.4-18.3-40.3-50.3-40.3-98.4v-44.5c31-9.1,60.1-21.6,88.6-37.8c27.8,15.8,58.1,28.8,88.6,37.8
				L344.6,265.4L344.6,265.4z"/>
			<path d="M210.9,280.6c-4.2-4.2-11-4.2-15.2,0c-4.2,4.2-4.2,11,0,15.2l35,35c2.1,2.1,4.9,3.2,7.6,3.2s5.5-1.1,7.6-3.2l70.5-70.5
				c4.2-4.2,4.2-11,0-15.2c-4.2-4.2-11-4.2-15.2,0L238.3,308L210.9,280.6z"/>
			<path d="M380.6,405.2h-0.3c-5.9,0-10.8,4.8-10.8,10.8c0,5.9,4.8,10.8,10.8,10.8h0.3c5.9,0,10.8-4.8,10.8-10.8
				C391.4,410,386.6,405.2,380.6,405.2z"/>
			<path d="M458.6,405.2h-47.3c-5.9,0-10.8,4.8-10.8,10.8c0,5.9,4.8,10.8,10.8,10.8h47.3c5.9,0,10.8-4.8,10.8-10.8
				C469.3,410,464.5,405.2,458.6,405.2z"/>
		</g>
	</g>
</g>
</svg>
