<?xml version="1.0" encoding="utf-8"?>
<!-- Generator: Adobe Illustrator 21.0.0, SVG Export Plug-In . SVG Version: 6.00 Build 0)  -->
<svg version="1.1" id="Layer_1" xmlns="http://www.w3.org/2000/svg" xmlns:xlink="http://www.w3.org/1999/xlink" x="0px" y="0px"
	 viewBox="0 0 512 512" style="enable-background:new 0 0 512 512;" xml:space="preserve">
<g id="_11-call_center_support">
	<g id="linear_color">
		<path d="M364,181.2v-30.6c0-6.1-4.5-11.2-10.5-11.9l-25.4-3.1l-7.9-19.2l15.7-20.1c3.7-4.8,3.3-11.6-1-15.9l-47.3-47.3
			c-4.3-4.3-11.1-4.7-15.9-1l-20.1,15.7l-19.2-7.9l-3.1-25.4c-0.7-6-5.9-10.5-11.9-10.5h-66.8c-6.1,0-11.2,4.5-11.9,10.5l-3.1,25.4
			l-19.2,7.9L96.2,32.1c-4.8-3.7-11.6-3.3-15.9,1L33.1,80.4c-4.3,4.3-4.7,11.1-1,15.9l15.7,20.1l-7.9,19.2l-25.4,3.1
			c-6,0.7-10.5,5.8-10.5,11.9v66.8c0,6.1,4.5,11.2,10.5,11.9l25.4,3.1l7.9,19.2l-15.7,20.1c-3.7,4.8-3.3,11.6,1,15.9l47.3,47.3
			c4.3,4.3,11.1,4.7,15.9,1l20.1-15.7l19.2,7.9l3.1,25.4c0.7,6,5.9,10.5,11.9,10.5h30.6c9.9,81,79.1,144,162.8,144
			c90.4,0,164-73.6,164-164C508,260.3,445,191.1,364,181.2z M158.5,318.2c-0.5-4.3-3.3-8-7.3-9.6l-32.1-13.3c-4-1.7-8.6-1-12,1.6
			l-17.3,13.5l-32.3-32.3L71,260.9c2.7-3.4,3.3-8,1.6-12l-13.3-32.1c-1.7-4-5.3-6.8-9.6-7.3L28,206.8v-45.6l21.8-2.7
			c4.3-0.5,8-3.3,9.6-7.3l13.3-32.1c1.7-4,1-8.6-1.6-12L57.6,89.8l32.3-32.3L107.1,71c3.4,2.7,8,3.3,12,1.6l32.1-13.3
			c4-1.7,6.8-5.3,7.3-9.6l2.7-21.8h45.6l2.7,21.8c0.5,4.3,3.3,8,7.3,9.6l32.1,13.3c4,1.7,8.6,1,12-1.6l17.3-13.5l32.3,32.3
			L297,107.1c-2.7,3.4-3.3,8-1.6,12l13.3,32.1c1.7,4,5.3,6.8,9.6,7.3l21.8,2.7v18.9c-22.7,0.5-45,5.8-65.6,15.5c1-8,1-16-0.1-24
			c-6.8-50-52.9-84.9-102.8-78.1s-84.9,52.9-78.1,102.8c6.2,45.2,44.8,78.9,90.4,78.9c3.9,0,7.8-0.3,11.7-0.7
			c-9.7,20.5-14.9,42.9-15.5,65.6h-18.9L158.5,318.2z M214,244.1c-25.9,12.8-57,7.7-77.5-12.6c-26.5-26-27-68.5-1-95s68.5-27,95-1
			c0.3,0.3,0.7,0.7,1,1c20.3,20.5,25.4,51.6,12.6,77.5C232.8,222.7,222.7,232.8,214,244.1z M344,484c-77.2,0-140-62.8-140-140
			s62.8-140,140-140s140,62.8,140,140S421.2,484,344,484z"/>
		<path d="M440,316h-20v-12c0-42-34-76-76-76s-76,34-76,76v12h-20c-11,0-20,9-20,20v42c0,9.9,8.1,18,18,18h22v4
			c0,19.9,16.1,36,36,36h56c6.6,0,12-5.4,12-12s-5.4-12-12-12h-56c-6.6,0-12-5.4-12-12v-96c0-28.7,23.3-52,52-52s52,23.3,52,52v80
			c0,6.6,5.4,12,12,12h34c9.9,0,18-8.1,18-18v-42C460,325,451,316,440,316z M252,340h16v32h-16V340z M436,372h-16v-32h16V372z"/>
	</g>
</g>
</svg>
