<?xml version="1.0" encoding="utf-8"?>
<!-- Generator: Adobe Illustrator 21.0.0, SVG Export Plug-In . SVG Version: 6.00 Build 0)  -->
<svg version="1.1" id="Capa_1" xmlns="http://www.w3.org/2000/svg" xmlns:xlink="http://www.w3.org/1999/xlink" x="0px" y="0px"
	 viewBox="0 0 512 512" style="enable-background:new 0 0 512 512;" xml:space="preserve">
<g>
	<g>
		<path d="M245.3,234.7H32c-17.7,0-32,14.3-32,32V480c0,17.7,14.3,32,32,32h213.3c17.7,0,32-14.3,32-32V266.7
			C277.3,249,263,234.7,245.3,234.7z M256,480c0,5.9-4.8,10.7-10.7,10.7H32c-5.9,0-10.7-4.8-10.7-10.7V266.7
			c0-5.9,4.8-10.7,10.7-10.7h213.3c5.9,0,10.7,4.8,10.7,10.7V480z"/>
	</g>
</g>
<g>
	<g>
		<path d="M170.7,277.3v53.3h-64v-53.3H85.3v64c0,5.9,4.8,10.7,10.7,10.7h85.3c5.9,0,10.7-4.8,10.7-10.7v-64H170.7z"/>
	</g>
</g>
<g>
	<g>
		<path d="M106.7,394.7H64c-5.9,0-10.7,4.8-10.7,10.7V448c0,5.9,4.8,10.7,10.7,10.7h42.7c5.9,0,10.7-4.8,10.7-10.7v-42.7
			C117.3,399.4,112.6,394.7,106.7,394.7z M96,437.3H74.7V416H96V437.3z"/>
	</g>
</g>
<g>
	<g>
		<rect x="138.7" y="394.7" width="74.7" height="21.3"/>
	</g>
</g>
<g>
	<g>
		<rect x="138.7" y="437.3" width="42.7" height="21.3"/>
	</g>
</g>
<g>
	<g>
		<path d="M373.3,0H160c-17.7,0-32,14.3-32,32v213.3h21.3V32c0-5.9,4.8-10.7,10.7-10.7h213.3c5.9,0,10.7,4.8,10.7,10.7v213.3h21.3
			V32C405.3,14.3,391,0,373.3,0z"/>
	</g>
</g>
<g>
	<g>
		<path d="M298.7,42.7V96h-64V42.7h-21.3v64c0,5.9,4.8,10.7,10.7,10.7h85.3c5.9,0,10.7-4.8,10.7-10.7v-64H298.7z"/>
	</g>
</g>
<g>
	<g>
		<path d="M234.7,160H192c-5.9,0-10.7,4.8-10.7,10.7v42.7h21.3v-32H224v32h21.3v-42.7C245.3,164.8,240.6,160,234.7,160z"/>
	</g>
</g>
<g>
	<g>
		<rect x="266.7" y="160" width="74.7" height="21.3"/>
	</g>
</g>
<g>
	<g>
		<path d="M480,234.7H298.7V256H480c5.9,0,10.7,4.8,10.7,10.7V480c0,5.9-4.8,10.7-10.7,10.7H298.7V512H480c17.7,0,32-14.3,32-32
			V266.7C512,249,497.7,234.7,480,234.7z"/>
	</g>
</g>
<g>
	<g>
		<path d="M405.3,277.3v53.3h-64v-53.3H320v64c0,5.9,4.8,10.7,10.7,10.7H416c5.9,0,10.7-4.8,10.7-10.7v-64H405.3z"/>
	</g>
</g>
<g>
	<g>
		<path d="M341.3,394.7h-42.7V416h32v21.3h-32v21.3h42.7c5.9,0,10.7-4.8,10.7-10.7v-42.7C352,399.4,347.2,394.7,341.3,394.7z"/>
	</g>
</g>
<g>
	<g>
		<rect x="373.3" y="394.7" width="74.7" height="21.3"/>
	</g>
</g>
<g>
	<g>
		<rect x="373.3" y="437.3" width="42.7" height="21.3"/>
	</g>
</g>
</svg>
