<?xml version="1.0" encoding="utf-8"?>
<!-- Generator: Adobe Illustrator 21.0.0, SVG Export Plug-In . SVG Version: 6.00 Build 0)  -->
<svg version="1.1" id="Layer_1" xmlns="http://www.w3.org/2000/svg" xmlns:xlink="http://www.w3.org/1999/xlink" x="0px" y="0px"
	 viewBox="0 0 512 512" style="enable-background:new 0 0 512 512;" xml:space="preserve">
<style type="text/css">
	.st0{fill:#EE4623;}
</style>
<g id="SUV">
	<rect x="280" y="240" class="st0" width="32" height="16"/>
	<rect x="112" y="240" class="st0" width="32" height="16"/>
	<path class="st0" d="M475.9,221.9l-73.4-12.2c-2.8-0.5-5.2-2.5-6.2-5.2l-33-92.6c-3.4-9.5-12.5-15.9-22.6-15.9H75.3
		c-10.1,0-19.2,6.4-22.6,15.9l-34.3,96.2c-1.5,4.3-2.3,8.9-2.3,13.4V344c0,13.2,10.8,24,24,24h8.6c4.4,30.6,32.7,51.8,63.3,47.4
		c24.6-3.5,43.9-22.8,47.4-47.4h193.3c4.4,30.6,32.7,51.8,63.3,47.4c24.6-3.5,43.9-22.8,47.4-47.4h8.6c13.2,0,24-10.8,24-24v-98.5
		C496,233.8,487.5,223.8,475.9,221.9z M143.2,368c-1,5-3,9.7-5.8,14l-5-5L121,388.3l5,5c-4.3,2.8-9,4.8-14,5.8V392H96v7.2
		c-5-1-9.7-3-14-5.8l5-5L75.7,377l-5,5c-2.8-4.3-4.8-9-5.8-14H72v-16h-7.2c1-5,3-9.7,5.8-14l5,5L87,331.7l-5-5c4.3-2.8,9-4.8,14-5.8
		v7.2h16v-7.2c5,1,9.7,3,14,5.8l-5,5l11.4,11.4l5-5c2.8,4.3,4.8,9,5.8,14H136v16h7.2V368z M248,208h-88v-64h88V208z M447.2,368
		c-1,5-3,9.7-5.8,14l-5-5L425,388.3l5,5c-4.3,2.8-9,4.8-14,5.8V392h-16v7.2c-5-1-9.7-3-14-5.8l5-5L379.7,377l-5,5
		c-2.8-4.3-4.8-9-5.8-14h7.2v-16h-7.2c1-5,3-9.7,5.8-14l5,5l11.4-11.4l-5-5c4.3-2.8,9-4.8,14-5.8v7.2h16v-7.2c5,1,9.7,3,14,5.8l-5,5
		l11.4,11.4l5-5c2.8,4.3,4.8,9,5.8,14H440v16H447.2z M480,304h-24v16h24v24c0,4.4-3.6,8-8,8h-8.6c-4.4-30.6-32.7-51.8-63.3-47.4
		c-24.6,3.5-43.9,22.8-47.4,47.4H264V224h96c2.7,0,5.1-1.3,6.6-3.5s1.8-5,0.8-7.4l-32-80c-1.2-3-4.2-5-7.4-5H96.2
		c-3.5,0-6.6,2.3-7.7,5.7l-24.2,80c-0.7,2.4-0.2,5.1,1.3,7.1s3.9,3.2,6.4,3.2h176v128h-88.6c-4.4-30.6-32.7-51.8-63.3-47.4
		c-24.6,3.5-43.9,22.8-47.4,47.4H40c-4.4,0-8-3.6-8-8v-48h24v-16H32v-16h24v-16H32v-26.5c0-2.7,0.5-5.5,1.4-8.1l34.4-96.2
		c1.2-3.2,4.2-5.3,7.5-5.3h265.4c3.4,0,6.4,2.1,7.5,5.3l33,92.6c3,8.2,10.1,14.2,18.7,15.6l73.4,12.2c1.7,0.3,3.2,1.1,4.3,2.3H456
		c-13.3,0-24,10.8-24,24s10.7,24,24,24h24V304z M264,208v-64h58.6l25.6,64H264z M144,144v64H82.8l19.3-64H144z M480,272h-24
		c-4.4,0-8-3.6-8-8s3.6-8,8-8h24V272z"/>
	<path class="st0" d="M104,336c-13.3,0-24,10.7-24,24s10.7,24,24,24s24-10.7,24-24S117.3,336,104,336z M104,368c-4.4,0-8-3.6-8-8
		s3.6-8,8-8s8,3.6,8,8S108.4,368,104,368z"/>
	<path class="st0" d="M408,336c-13.3,0-24,10.7-24,24s10.7,24,24,24s24-10.7,24-24S421.3,336,408,336z M408,368c-4.4,0-8-3.6-8-8
		s3.6-8,8-8s8,3.6,8,8S412.4,368,408,368z"/>
</g>
</svg>
