<?xml version="1.0" encoding="utf-8"?>
<!-- Generator: Adobe Illustrator 21.0.0, SVG Export Plug-In . SVG Version: 6.00 Build 0)  -->
<svg version="1.1" id="Layer_3" xmlns="http://www.w3.org/2000/svg" xmlns:xlink="http://www.w3.org/1999/xlink" x="0px" y="0px"
	 viewBox="0 0 512 512" style="enable-background:new 0 0 512 512;" xml:space="preserve">
<style type="text/css">
	.st0{fill:#EE4623;}
</style>
<path class="st0" d="M501.7,250.3l-240-240c-3.1-3.1-8.2-3.1-11.3,0l-240,240c-3.1,3.1-3.1,8.2,0,11.3c1.5,1.5,3.5,2.3,5.7,2.3h40
	v192h-8c-4.4,0-8,3.6-8,8v32c0,4.4,3.6,8,8,8h416c4.4,0,8-3.6,8-8v-32c0-4.4-3.6-8-8-8h-8V264h40c4.4,0,8-3.6,8-8
	C504,253.9,503.2,251.8,501.7,250.3z M456,488H56v-16h400V488z M216,456h-96V312h96V456z M232,456V304c0-4.4-3.6-8-8-8H112
	c-4.4,0-8,3.6-8,8v152H72V259.3l184-184l184,184V456H232z M451.3,248L261.7,58.3c-3.1-3.1-8.2-3.1-11.3,0L60.7,248H35.3L256,27.3
	L476.7,248H451.3z"/>
<path class="st0" d="M312,208c0-30.9-25.1-56-56-56s-56,25.1-56,56s25.1,56,56,56S312,238.9,312,208z M216,208c0-22.1,17.9-40,40-40
	s40,17.9,40,40s-17.9,40-40,40S216,230.1,216,208z"/>
<path class="st0" d="M416,296H256c-4.4,0-8,3.6-8,8v112c0,4.4,3.6,8,8,8h160c4.4,0,8-3.6,8-8V304C424,299.6,420.4,296,416,296z
	 M408,352h-64v-40h64V352z M328,312v40h-64v-40H328z M264,368h64v40h-64V368z M344,408v-40h64v40H344z"/>
<rect x="136" y="360" class="st0" width="16" height="32"/>
</svg>
