<?xml version="1.0" encoding="utf-8"?>
<!-- Generator: Adobe Illustrator 21.0.0, SVG Export Plug-In . SVG Version: 6.00 Build 0)  -->
<svg version="1.1" id="Layer_1" xmlns="http://www.w3.org/2000/svg" xmlns:xlink="http://www.w3.org/1999/xlink" x="0px" y="0px"
	 viewBox="0 0 575 575" style="enable-background:new 0 0 575 575;" xml:space="preserve">
<style type="text/css">
	.st0{fill:#EE4623;}
</style>
<g id="surface1">
	<path class="st0" d="M574,373.9v-52.1c0-24.5-13.4-47.1-35-58.9c-0.4-0.2-0.7-0.4-1.1-0.5l-60.4-23.5l-13.1-7.1l-18.3-15.3
		c-27.7-23.1-58.7-41.8-92-55.5c-57.8-21.8-120-29.7-181.5-22.9L79,148l-52.3,5.5c-1.1,0.1-2.2,0.4-3.3,1c-4.7,2.4-6.7,8.1-4.3,12.9
		l16.5,32.9l-34.5,43c-1.4,1.7-2.1,3.8-2.1,6v86.3c0,2.5,1,5,2.8,6.8l35.7,35.7c1.9,31.8,25.9,57.8,57.5,62.3
		c36.6,5.2,70.6-20.3,75.8-56.9h231.6c4.2,29.4,27.4,52.6,56.8,56.8c36.6,5.3,70.6-20.2,75.8-56.8h29.5
		C569.8,383.5,574,379.2,574,373.9z M420.7,373.9c0-26.5,21.5-47.9,47.9-47.9c26.5,0,47.9,21.5,47.9,47.9
		c0,26.5-21.5,47.9-47.9,47.9S420.7,400.3,420.7,373.9z M56.5,373.9c0-26.5,21.5-47.9,47.9-47.9c26.5,0,47.9,21.5,47.9,47.9
		c0,26.5-21.5,47.9-47.9,47.9S56.5,400.3,56.5,373.9z M18.2,268.5h35.6L49,287.6H18.2V268.5z M115.4,235.1c1.6,2.7,4.5,4.5,7.7,4.6
		l121.5,6l20,80.2h-64.4V345h69.2l4.8,19.2H170.8c-0.1-0.7-0.3-1.4-0.4-2.2c-0.2-0.9-0.3-1.8-0.5-2.7c-0.3-1.2-0.6-2.4-1-3.6
		c-0.2-0.8-0.4-1.7-0.7-2.5c-0.4-1.2-0.9-2.5-1.3-3.7c-0.3-0.7-0.6-1.5-0.9-2.2c-0.6-1.4-1.2-2.7-1.9-4c-0.3-0.5-0.5-1.1-0.8-1.6
		c-1-1.8-2.1-3.6-3.2-5.3c-0.3-0.4-0.6-0.7-0.8-1.1c-0.9-1.3-1.9-2.6-2.9-3.8c-0.5-0.6-1-1.1-1.5-1.7c-0.9-1-1.7-1.9-2.7-2.9
		c-0.6-0.6-1.2-1.2-1.8-1.7c-0.9-0.8-1.8-1.7-2.7-2.5c-0.7-0.6-1.4-1.1-2-1.6c-1-0.7-1.9-1.5-2.9-2.1c-0.7-0.5-1.5-1-2.2-1.5
		c-1-0.6-2-1.3-3-1.9c-0.8-0.4-1.6-0.9-2.4-1.3c-1.1-0.6-2.1-1.1-3.2-1.6c-0.8-0.4-1.6-0.7-2.5-1.1c-1.1-0.5-2.3-0.9-3.5-1.3
		c-0.8-0.3-1.7-0.6-2.5-0.8c-1.2-0.4-2.5-0.7-3.7-1c-0.8-0.2-1.6-0.4-2.5-0.6c-1.4-0.3-2.8-0.5-4.3-0.7c-0.7-0.1-1.4-0.2-2.1-0.3
		c-2.2-0.2-4.4-0.3-6.6-0.3c-3.3,0-6.6,0.3-9.9,0.8c-0.6,0.1-1.3,0.2-1.9,0.3c-3.1,0.5-6.1,1.3-9.1,2.3c-0.5,0.2-1.1,0.4-1.6,0.6
		c-2.7,1-5.3,2.1-7.9,3.4c-0.4,0.2-0.7,0.3-1.1,0.5c-2.7,1.5-5.3,3.1-7.7,4.9c-0.6,0.4-1.1,0.8-1.7,1.2c-2.4,1.8-4.7,3.8-6.8,6
		c-0.3,0.3-0.5,0.6-0.8,0.9c-1.9,2-3.8,4.2-5.4,6.5c-0.4,0.5-0.7,0.9-1.1,1.4c-1.7,2.5-3.3,5-4.7,7.7c-0.3,0.6-0.6,1.2-0.9,1.8
		c-1.3,2.7-2.5,5.6-3.4,8.5c0,0.1-0.1,0.2-0.1,0.3L18,331.5v-24.8h38.3c4.4,0,8.2-3,9.3-7.3l9.6-38.3c0.2-0.8,0.3-1.5,0.3-2.3
		c0-5.3-4.3-9.6-9.6-9.6h-45l33.5-41.9c2.3-2.9,2.8-6.9,1.1-10.3l-13-26l32.4-3.4L115.4,235.1z M239.8,226.3l-110.6-5.5L96,165.5
		l78.7-8.3c13.5-1.4,27.1-2.1,40.6-2.1c2.2,0,4.5,0.1,6.7,0.1L239.8,226.3z M439.9,236.3l-180.2-9L241.9,156
		c35.9,1.9,71.3,9.6,104.9,22.7c31.5,13,60.9,30.7,87,52.5L439.9,236.3z M554.9,326h-39.4c-0.3-0.3-0.5-0.5-0.8-0.7
		c-0.9-0.8-1.8-1.7-2.7-2.5c-0.7-0.6-1.4-1.1-2-1.6c-1-0.7-1.9-1.5-2.9-2.1c-0.7-0.5-1.5-1-2.2-1.5c-1-0.6-2-1.3-3-1.8
		c-0.8-0.5-1.6-0.9-2.4-1.3c-1.1-0.6-2.1-1.1-3.2-1.6c-0.8-0.4-1.6-0.7-2.5-1.1c-1.1-0.5-2.3-0.9-3.5-1.3c-0.8-0.3-1.7-0.6-2.5-0.8
		c-1.2-0.4-2.5-0.7-3.7-1c-0.8-0.2-1.6-0.4-2.5-0.6c-1.4-0.3-2.8-0.5-4.3-0.7c-0.7-0.1-1.4-0.2-2.1-0.3c-2.2-0.2-4.4-0.3-6.6-0.3
		s-4.4,0.1-6.6,0.4c-0.7,0.1-1.4,0.2-2.1,0.3c-1.4,0.2-2.9,0.4-4.3,0.7c-0.8,0.2-1.6,0.4-2.5,0.6c-1.2,0.3-2.5,0.6-3.7,1
		c-0.9,0.2-1.7,0.5-2.5,0.8c-1.2,0.4-2.3,0.8-3.5,1.3c-0.8,0.3-1.6,0.7-2.5,1.1c-1.1,0.5-2.2,1-3.2,1.6c-0.8,0.4-1.6,0.8-2.4,1.3
		c-1,0.6-2.1,1.2-3,1.8c-0.8,0.5-1.5,1-2.2,1.5c-1,0.7-1.9,1.4-2.9,2.1c-0.7,0.5-1.4,1.1-2,1.6c-0.9,0.8-1.8,1.6-2.7,2.5
		c-0.6,0.6-1.2,1.1-1.8,1.7c-0.9,0.9-1.8,1.9-2.7,2.9c-0.5,0.6-1,1.1-1.5,1.7c-1,1.2-1.9,2.5-2.9,3.8c-0.3,0.4-0.6,0.7-0.8,1.1
		c-1.2,1.7-2.2,3.5-3.2,5.3c-0.3,0.5-0.5,1.1-0.8,1.6c-0.7,1.3-1.3,2.7-1.9,4c-0.3,0.7-0.6,1.5-0.9,2.2c-0.5,1.2-0.9,2.4-1.3,3.7
		c-0.3,0.8-0.5,1.7-0.7,2.5c-0.4,1.2-0.7,2.4-1,3.6c-0.2,0.9-0.4,1.8-0.5,2.7c-0.1,0.7-0.3,1.4-0.4,2.2H294l-4.8-19.2h102.7V326
		H284.4l-19.8-79.2l206.8,10.3l58.9,22.9c15.1,8.5,24.5,24.5,24.5,41.8L554.9,326L554.9,326z M554.9,364.3h-19.8
		c-0.1-0.7-0.3-1.4-0.4-2.2c-0.2-0.9-0.3-1.8-0.5-2.7c-0.3-1.2-0.6-2.4-1-3.6c-0.2-0.8-0.5-1.7-0.7-2.5c-0.4-1.2-0.9-2.5-1.3-3.7
		c-0.3-0.7-0.5-1.5-0.9-2.2c-0.3-0.8-0.7-1.5-1.1-2.3h25.7V364.3z"/>
	<path class="st0" d="M344,278.1h-47.9v-19.2H344V278.1z"/>
	<path class="st0" d="M190.7,278.1h-57.5v-19.2h57.5V278.1z"/>
</g>
</svg>
