<?xml version="1.0" encoding="utf-8"?>
<!-- Generator: Adobe Illustrator 21.0.0, SVG Export Plug-In . SVG Version: 6.00 Build 0)  -->
<svg version="1.1" id="Capa_1" xmlns="http://www.w3.org/2000/svg" xmlns:xlink="http://www.w3.org/1999/xlink" x="0px" y="0px"
	 viewBox="0 0 512 512" style="enable-background:new 0 0 512 512;" xml:space="preserve">
<style type="text/css">
	.st0{fill:#EE4623;}
</style>
<g>
	<g>
		<path class="st0" d="M475,246h-74V10c0-4-2.4-7.7-6.2-9.2c-3.7-1.5-8-0.7-10.9,2.2l-28.3,28.3L327.3,2.9C323.4-1,317-1,313.1,2.9
			l-28.3,28.3L256.5,2.9c-3.9-3.9-10.2-3.9-14.1,0L214,31.3L185.7,2.9c-3.9-3.9-10.2-3.9-14.1,0l-28.3,28.3L114.9,2.9
			C111-1,104.6-1,100.7,2.9L72.4,31.3L44.1,2.9C40.2-1,33.9-1,30,2.9c-2.1,2-3.1,4.7-3,7.4V460c0,28.7,23.3,52,52,52h354l0,0l0,0
			c28.7,0,52-23.3,52-52V256C485,250.5,480.5,246,475,246z M79,492c-17.6,0-32-14.4-32-32V34.2l18.3,18.3c3.9,3.9,10.2,3.9,14.1,0
			l28.3-28.3L136,52.5c3.9,3.9,10.2,3.9,14.1,0l28.3-28.3l28.3,28.3c3.9,3.9,10.2,3.9,14.1,0l28.3-28.3l28.3,28.3
			c3.9,3.9,10.2,3.9,14.1,0l28.3-28.3l28.3,28.3c3.9,3.9,10.2,3.9,14.1,0L381,34.1V256c0,0.1,0,0.2,0,0.3V460
			c0,12.1,4.1,23.2,11.1,32H79L79,492z M465,460c0,17.6-14.4,32-32,32s-32-14.4-32-32V266h64V460L465,460z"/>
	</g>
</g>
<g>
	<g>
		<path class="st0" d="M214,158.9c-9.9,0-18-6.9-18-15.4s8.1-15.4,18-15.4s18,6.9,18,15.4c0,5.5,4.5,10,10,10s10-4.5,10-10
			c0-16.3-11.9-30.1-28-34.2v-6.8c0-5.5-4.5-10-10-10s-10,4.5-10,10v6.8c-16.1,4.1-28,17.9-28,34.2c0,19.5,17,35.4,38,35.4
			c9.9,0,18,6.9,18,15.4s-8.1,15.4-18,15.4s-18-6.9-18-15.4c0-5.5-4.5-10-10-10s-10,4.5-10,10c0,16.3,11.9,30.1,28,34.2v8.2
			c0,5.5,4.5,10,10,10s10-4.5,10-10v-8.2c16.1-4.1,28-17.9,28-34.2C252,174.7,234.9,158.9,214,158.9z"/>
	</g>
</g>
<g>
	<g>
		<path class="st0" d="M314.5,158.9H295c-5.5,0-10,4.5-10,10s4.5,10,10,10h19.5c5.5,0,10-4.5,10-10S320,158.9,314.5,158.9z"/>
	</g>
</g>
<g>
	<g>
		<path class="st0" d="M133,158.9h-19.5c-5.5,0-10,4.5-10,10s4.5,10,10,10H133c5.5,0,10-4.5,10-10S138.5,158.9,133,158.9z"/>
	</g>
</g>
<g>
	<g>
		<path class="st0" d="M319.5,270H161.1c-5.5,0-10,4.5-10,10s4.5,10,10,10h158.4c5.5,0,10-4.5,10-10S325,270,319.5,270z"/>
	</g>
</g>
<g>
	<g>
		<path class="st0" d="M115.5,272.9c-1.9-1.9-4.4-2.9-7.1-2.9s-5.2,1.1-7.1,2.9s-2.9,4.4-2.9,7.1s1.1,5.2,2.9,7.1
			c1.9,1.9,4.4,2.9,7.1,2.9s5.2-1.1,7.1-2.9s2.9-4.4,2.9-7.1S117.4,274.8,115.5,272.9z"/>
	</g>
</g>
<g>
	<g>
		<path class="st0" d="M319.5,336H161.1c-5.5,0-10,4.5-10,10s4.5,10,10,10h158.4c5.5,0,10-4.5,10-10S325,336,319.5,336z"/>
	</g>
</g>
<g>
	<g>
		<path class="st0" d="M115.5,338.9c-1.9-1.9-4.4-2.9-7.1-2.9s-5.2,1.1-7.1,2.9s-2.9,4.4-2.9,7.1s1.1,5.2,2.9,7.1
			c1.9,1.9,4.4,2.9,7.1,2.9s5.2-1.1,7.1-2.9s2.9-4.4,2.9-7.1S117.4,340.8,115.5,338.9z"/>
	</g>
</g>
<g>
	<g>
		<path class="st0" d="M319.5,402H161.1c-5.5,0-10,4.5-10,10s4.5,10,10,10h158.4c5.5,0,10-4.5,10-10S325,402,319.5,402z"/>
	</g>
</g>
<g>
	<g>
		<path class="st0" d="M115.5,404.9c-1.9-1.9-4.4-2.9-7.1-2.9s-5.2,1.1-7.1,2.9s-2.9,4.4-2.9,7.1s1.1,5.2,2.9,7.1
			c1.9,1.9,4.4,2.9,7.1,2.9s5.2-1.1,7.1-2.9s2.9-4.4,2.9-7.1S117.4,406.8,115.5,404.9z"/>
	</g>
</g>
</svg>
