<?xml version="1.0" encoding="utf-8"?>
<!-- Generator: Adobe Illustrator 21.0.0, SVG Export Plug-In . SVG Version: 6.00 Build 0)  -->
<svg version="1.1" id="Capa_1" xmlns="http://www.w3.org/2000/svg" xmlns:xlink="http://www.w3.org/1999/xlink" x="0px" y="0px"
	 viewBox="0 0 512 512" style="enable-background:new 0 0 512 512;" xml:space="preserve">
<style type="text/css">
	.st0{fill:#EE4623;}
</style>
<path class="st0" d="M500.7,292.3c-2.1-3.6-6.7-4.8-10.3-2.7s-4.8,6.7-2.7,10.3c6.1,10.3,9.3,22.1,9.3,34.1
	c0,37.2-30.3,67.5-67.5,67.5S362,371.2,362,334c0-9.5,2-18.8,5.8-27.4l19.9,19c-0.6,2.8-0.8,5.6-0.8,8.4c0,23.5,19.1,42.6,42.6,42.6
	s42.6-19.1,42.6-42.6s-19.1-42.6-42.6-42.6c-3.6,0-7.1,0.4-10.5,1.3l-19.9-19c9.4-4.8,19.7-7.2,30.4-7.2c16,0,31.6,5.7,43.8,16.1
	c1.4,1.2,3.1,1.8,4.9,1.8c2.1,0,4.2-0.9,5.7-2.6c2.7-3.2,2.3-7.9-0.8-10.6c-14.9-12.7-33.9-19.7-53.5-19.7
	c-14.8,0-29.2,3.9-41.8,11.4l-9.2-8.8c13.7-7.8,29.5-12.2,46.3-12.2c5,0,10,0.4,14.9,1.2c2.2,0.4,4.4-0.3,6.1-1.7l23.7-20.5
	c3.8-3.3,6.6-7.3,8.4-11.9c6.3-16.2,6.6-46.9-5.4-60.7c-33.1-37.8-82.1-56.4-138.1-52.4c-13.8,1-21.7,16.2-14.6,28.1l3.3,5.5h-15.6
	c-4.1,0-7.5,3.4-7.5,7.5s3.4,7.5,7.5,7.5h24.2c3.5,7.7,5.1,16,4.8,24.4c-15-13.4-34.4-20.8-55-20.8c-27.2,0-52.2,13-67.8,35.1h-54
	c-4.2,0-8.4-1.5-11.7-4.1L92.9,135c-1.3-1.1-3-1.7-4.7-1.7H43.3c-12.4,0-22.6,10.1-22.6,22.6c0,7.3,3.5,14.1,9.4,18.3l16.1,11.6
	c3.4,2.4,8,1.6,10.5-1.7c2.4-3.4,1.6-8.1-1.7-10.5L38.9,162c-2-1.4-3.2-3.7-3.2-6.2c0-4.2,3.4-7.6,7.6-7.6h42.2l52.8,42.4
	c6,4.8,13.5,7.4,21.1,7.4h56.8l48.6,18.6l26.7,10.2c-1.4,0.7-19.4,16.5-48.7,16.5h-16.5c-16.5,0-32.1,8.9-40.6,24.1l-12.4-8.9l0,0
	l-98-70.4c-3.4-2.4-8.1-1.6-10.5,1.7c-2.4,3.4-1.6,8.1,1.7,10.5l88.9,63.8l-16.2,9.9c-15.3-14.5-35.7-22.7-56.8-22.7
	C37,251.5,0,288.6,0,334.1s37,82.5,82.5,82.5s82.5-37,82.5-82.5c0-7-0.9-13.9-2.6-20.7l17.8-10.9v56.2c0,21.4,17.4,38.9,38.9,38.9
	h36.1v4h-48.9c-4.1,0-7.5,3.4-7.5,7.5s3.4,7.5,7.5,7.5h56.4c4.1,0,7.5-3.4,7.5-7.5v-11.5H339c2.7,0,5.3-1.5,6.6-3.9s1.2-5.3-0.2-7.6
	c-9.5-15-14.5-32.4-14.5-50.2c0-18.5,5.4-35.8,14.7-50.3l10.9,10.3c-6.1,11.8-9.4,24.8-9.4,38.2c0,45.5,37,82.5,82.5,82.5
	s82.5-37,82.5-82.5C512,319.4,508.1,305,500.7,292.3L500.7,292.3z M457.1,334.1c0,15.2-12.4,27.6-27.6,27.6
	c-13.3,0-24.5-9.5-27.1-22l11.4,10.9c4.2,4,9.8,6.3,15.7,6.3c6.2,0,12.2-2.6,16.5-7.1c4.2-4.4,6.4-10.2,6.3-16.2
	c-0.2-6.1-2.7-11.7-7.1-15.9l-11.4-10.9C447,308.8,457.1,320.3,457.1,334.1z M463.6,162.1c5.7,12.4,3.9,33.7-0.1,42.3
	c-10.1-1.7-17.8-10.5-17.8-21.1C445.6,172.6,453.4,163.7,463.6,162.1L463.6,162.1z M281.2,163.1c19.9,0,38.5,8.5,51.4,23.5
	c-7.5,19.5-22.2,26.3-26.5,29.9l-62.6-23.9l-14.3-5.5C242.2,171.9,261,163.1,281.2,163.1L281.2,163.1z M180.7,282.4
	c-0.1,0.7-0.2,1.5-0.3,2.3l-66.7,41c0,0,0,0-0.1,0l-22.4,13.8c-3.6,2.2-8.4,1-10.6-2.6c-1.1-1.8-1.4-4-0.8-6
	c0.5-1.9,1.8-3.5,3.5-4.6l23.5-14.5c0,0,0,0,0.1,0l35.1-21.6l0,0l26.7-16.4L180.7,282.4z M67.8,344.7c4.3,7.1,11.8,11,19.5,11
	c4,0,8.1-1.1,11.8-3.3l7.5-4.6c-4.8,8.3-13.7,13.9-24,13.9c-15.2,0-27.6-12.4-27.6-27.6s12.4-27.6,27.6-27.6c1.4,0,2.7,0.1,4,0.3
	l-11.1,6.8c-5,3-8.6,7.8-10.2,13.4C63.7,332.9,64.6,339.4,67.8,344.7L67.8,344.7z M150.1,334.1c0,37.2-30.3,67.5-67.5,67.5
	s-67.5-30.3-67.5-67.5s30.3-67.5,67.5-67.5c16,0,31.4,5.7,43.5,15.9L103,296.6c-6.2-3.4-13.2-5.2-20.4-5.2
	C59.1,291.4,40,310.5,40,334s19.1,42.6,42.6,42.6c22.7,0,41.4-17.9,42.6-40.4l23.8-14.6C149.7,325.8,150.1,329.9,150.1,334.1
	L150.1,334.1z M326.3,382.6H219c-13.2,0-23.9-10.7-23.9-23.9v-69c0-15.6,11.5-28.4,26.1-30.8c13.4-2.2,43.4,5.8,76.8-18.2
	c23.6-16.9,45.1-27.8,51.8-59.5c2.6-12.3,1.7-24.9-2.3-36.6h8.9c4.1,0,7.5-3.4,7.5-7.5s-3.4-7.5-7.5-7.5h-16.1l-7.9-13.2
	c-1.4-2.3,0.1-5.3,2.8-5.5c46.7-3.3,88,10.4,117.6,38.7c-13.1,5.5-22.3,18.5-22.3,33.6c0,14.6,8.7,27.3,21.2,33.1l-13.3,11.5
	c-4.6-0.6-9.2-0.9-13.8-0.9c-60,0-108.9,48.7-108.9,108.9C315.8,352.1,319.4,368.1,326.3,382.6z M365.8,262.8l15.8,15l0,0l53.2,50.6
	c1.5,1.4,2.3,3.3,2.4,5.4s-0.7,4-2.1,5.5c-1.5,1.5-3.5,2.4-5.6,2.4c-2,0-3.9-0.8-5.3-2.1L371,289l0,0l-16.3-15.5
	C358,269.6,361.7,266,365.8,262.8z"/>
<path class="st0" d="M256,340.7h-21.5c-4.1,0-7.5,3.4-7.5,7.5s3.4,7.5,7.5,7.5H256c4.1,0,7.5-3.4,7.5-7.5S260.1,340.7,256,340.7z"/>
</svg>
