<?xml version="1.0" encoding="utf-8"?>
<!-- Generator: Adobe Illustrator 21.0.0, SVG Export Plug-In . SVG Version: 6.00 Build 0)  -->
<svg version="1.1" id="Layer_5" xmlns="http://www.w3.org/2000/svg" xmlns:xlink="http://www.w3.org/1999/xlink" x="0px" y="0px"
	 viewBox="0 0 512 512" style="enable-background:new 0 0 512 512;" xml:space="preserve">
<style type="text/css">
	.st0{fill:#EE4623;}
</style>
<g>
	<path class="st0" d="M480,248h-32V134.9c13.8-3.6,24-16,24-30.9V90.6l-197.6-79c-11.8-4.7-25-4.7-36.8,0L40,90.6V104
		c0,14.9,10.2,27.3,24,30.9V248H32c-13.2,0-24,10.8-24,24v208c0,13.2,10.8,24,24,24h448c13.2,0,24-10.8,24-24V272
		C504,258.8,493.2,248,480,248z M416,248V127.2l16,6.3V248H416z M256,64.6L400,121v127H112V120.9L256,64.6z M56,104v-2.6l187.5-75
		c8-3.2,17-3.2,24.9,0l187.5,75v2.6c0,8.4-6.4,15.2-14.6,15.9L256,47.4L70.6,119.9C62.4,119.2,56,112.4,56,104L56,104z M80,133.5
		l16-6.3V248H80V133.5z M488,480c0,4.4-3.6,8-8,8H32c-4.4,0-8-3.6-8-8V272c0-4.4,3.6-8,8-8h448c4.4,0,8,3.6,8,8V480z"/>
	<path class="st0" d="M64,280c-13.2,0-24,10.8-24,24s10.8,24,24,24s24-10.8,24-24S77.2,280,64,280z M64,312c-4.4,0-8-3.6-8-8
		s3.6-8,8-8s8,3.6,8,8S68.4,312,64,312z"/>
	<path class="st0" d="M64,344c-13.2,0-24,10.8-24,24s10.8,24,24,24s24-10.8,24-24S77.2,344,64,344z M64,376c-4.4,0-8-3.6-8-8
		s3.6-8,8-8s8,3.6,8,8S68.4,376,64,376z"/>
	<path class="st0" d="M448,280c-13.2,0-24,10.8-24,24s10.8,24,24,24s24-10.8,24-24S461.2,280,448,280z M448,312c-4.4,0-8-3.6-8-8
		s3.6-8,8-8s8,3.6,8,8S452.4,312,448,312z"/>
	<path class="st0" d="M448,344c-13.2,0-24,10.8-24,24s10.8,24,24,24s24-10.8,24-24S461.2,344,448,344z M448,376c-4.4,0-8-3.6-8-8
		s3.6-8,8-8s8,3.6,8,8S452.4,376,448,376z"/>
	<path class="st0" d="M408,280H104v112h304V280z M392,376H120v-80h272V376z"/>
	<path class="st0" d="M312,472h144v-64H312V472z M440,456h-48v-32h48V456z M328,424h48v32h-48V424z"/>
	<path class="st0" d="M136,416h16v16h-16V416z"/>
	<path class="st0" d="M168,416h16v16h-16V416z"/>
	<path class="st0" d="M200,416h16v16h-16V416z"/>
	<path class="st0" d="M104,416h16v16h-16V416z"/>
	<path class="st0" d="M232,416h16v16h-16V416z"/>
	<path class="st0" d="M104,448h16v16h-16V448z"/>
	<path class="st0" d="M232,448h16v16h-16V448z"/>
	<path class="st0" d="M200,448h16v16h-16V448z"/>
	<path class="st0" d="M136,448h16v16h-16V448z"/>
	<path class="st0" d="M168,448h16v16h-16V448z"/>
	<path class="st0" d="M136,328h32v16h-32V328z"/>
	<path class="st0" d="M184,328h16v16h-16V328z"/>
	<path class="st0" d="M216,328h160v16H216V328z"/>
	<path class="st0" d="M312,200v-56c0-30.9-25.1-56-56-56s-56,25.1-56,56v56H312z M216,152h32v32h-32V152z M264,184v-32h32v32H264z
		 M295.2,136H264v-31.2C279.6,108,292,120.4,295.2,136z M248,104.8V136h-31.2C220,120.4,232.4,108,248,104.8z"/>
</g>
</svg>
