<?xml version="1.0" encoding="utf-8"?>
<!-- Generator: Adobe Illustrator 21.0.0, SVG Export Plug-In . SVG Version: 6.00 Build 0)  -->
<svg version="1.1" id="Capa_1" xmlns="http://www.w3.org/2000/svg" xmlns:xlink="http://www.w3.org/1999/xlink" x="0px" y="0px"
	 viewBox="0 0 512 512" style="enable-background:new 0 0 512 512;" xml:space="preserve">
<style type="text/css">
	.st0{fill:#EE4623;}
</style>
<g>
	<g>
		<path class="st0" d="M480,0H224c-17.7,0-32,14.3-32,32v32h21.3V32c0-5.9,4.8-10.7,10.7-10.7h256c5.9,0,10.7,4.8,10.7,10.7v448
			c0,5.9-4.8,10.7-10.7,10.7H224c-5.9,0-10.7-4.8-10.7-10.7v-32H192v32c0,17.7,14.3,32,32,32h256c17.7,0,32-14.3,32-32V32
			C512,14.3,497.7,0,480,0z"/>
	</g>
</g>
<g>
	<g>
		<rect x="288" y="85.3" class="st0" width="181.3" height="21.3"/>
	</g>
</g>
<g>
	<g>
		<rect x="288" y="405.3" class="st0" width="181.3" height="21.3"/>
	</g>
</g>
<g>
	<g>
		<rect x="266.7" y="42.7" class="st0" width="128" height="21.3"/>
	</g>
</g>
<g>
	<g>
		<rect x="416" y="42.7" class="st0" width="21.3" height="21.3"/>
	</g>
</g>
<g>
	<g>
		<rect x="341.3" y="448" class="st0" width="21.3" height="21.3"/>
	</g>
</g>
<g>
	<g>
		<path class="st0" d="M352,266.7c-0.6,0.1-1.3,0.1-1.9,0c-5.4-0.5-9.3-5.3-8.8-10.7c0-94.3-76.4-170.7-170.7-170.7S0,161.7,0,256
			s76.4,170.7,170.7,170.7h96v-21.3h-96c-82.5,0-149.3-66.9-149.3-149.3s66.9-149.3,149.3-149.3S320,173.5,320,256
			c0,0.6,0,1.2,0,1.8c0.5,17.2,14.8,30.7,32,30.2h117.3v-21.3H352z"/>
	</g>
</g>
<g>
	<g>
		<path class="st0" d="M213.3,234.7V224c0-11.8-9.6-21.3-21.3-21.3h-42.7c-11.8,0-21.3,9.6-21.3,21.3v21.3
			c0,11.8,9.6,21.3,21.3,21.3H192V288h-42.7v-10.7H128V288c0,11.8,9.6,21.3,21.3,21.3H192c11.8,0,21.3-9.6,21.3-21.3v-21.3
			c0-11.8-9.6-21.3-21.3-21.3h-42.7V224H192v10.7H213.3L213.3,234.7z"/>
	</g>
</g>
<g>
	<g>
		<rect x="160" y="181.3" class="st0" width="21.3" height="32"/>
	</g>
</g>
<g>
	<g>
		<rect x="160" y="298.7" class="st0" width="21.3" height="32"/>
	</g>
</g>
<g>
	<g>
		<rect x="256" y="320" class="st0" width="149.3" height="21.3"/>
	</g>
</g>
<g>
	<g>
		<rect x="426.7" y="320" class="st0" width="21.3" height="21.3"/>
	</g>
</g>
<g>
	<g>
		<rect x="277.3" y="362.7" class="st0" width="21.3" height="21.3"/>
	</g>
</g>
<g>
	<g>
		<rect x="320" y="362.7" class="st0" width="149.3" height="21.3"/>
	</g>
</g>
</svg>
