<?xml version="1.0" encoding="utf-8"?>
<!-- Generator: Adobe Illustrator 21.0.0, SVG Export Plug-In . SVG Version: 6.00 Build 0)  -->
<svg version="1.1" id="Layer_1" xmlns="http://www.w3.org/2000/svg" xmlns:xlink="http://www.w3.org/1999/xlink" x="0px" y="0px"
	 viewBox="0 0 512 512" style="enable-background:new 0 0 512 512;" xml:space="preserve">
<path d="M464.3,206.8c-0.1-0.1-0.1-0.1-0.2-0.2L430,182.1v-28c0-3.9-3.1-7-7-7h-41.6L260.1,59.8c-2.4-1.8-5.7-1.8-8.2,0l-121.4,87.4
	H89c-3.9,0-7,3.1-7,7v27.9l-34,24.5c-0.1,0.1-0.2,0.2-0.2,0.2c-1.7,1.3-2.7,3.3-2.7,5.4v234.2c0,3.9,3.1,7,7,7c0,0,0,0,0,0h408
	c3.9,0,7-3.1,7-7c0,0,0,0,0,0V212.3C467,210.2,466,208.1,464.3,206.8z M59,224.4l143.4,82.3L59,431.2V224.4z M129.7,215.7
	c10.2-2.6,18.1-10.5,20.7-20.7h65.2c-28.4,22.1-33.5,63.1-11.3,91.5c3.9,5.1,8.6,9.5,13.9,13.2l-88.5-50.8V215.7z M256,194.9
	c28.4,0,51.4,23,51.4,51.4s-23,51.4-51.4,51.4c-28.4,0-51.4-23-51.4-51.4C204.6,218,227.6,195,256,194.9z M256,311.8
	c9.2,0,18.4-2,26.8-5.8L256,321.3l-26.8-15.4C237.6,309.8,246.8,311.7,256,311.8L256,311.8z M293.8,299.7
	c29.4-20.7,36.5-61.4,15.8-90.9c-3.7-5.3-8.2-9.9-13.2-13.9h65.3c2.6,10.2,10.5,18.1,20.7,20.7v33.2L293.8,299.7z M215.3,314.1
	l37.2,21.4c2.2,1.2,4.8,1.2,7,0l37.2-21.4l144.5,125.4H70.7L215.3,314.1z M309.6,306.7L453,224.4v206.8L309.6,306.7z M447.1,211.6
	l-17.1,9.8v-22.1L447.1,211.6z M256,74.1l101.5,73l-203,0L256,74.1z M132.8,161.2l246.1,0H416v68.3l-19.8,11.3v-31.3
	c0-3.9-3.1-7-7-7l0,0c-8,0-14.6-6.5-14.6-14.6c0,0,0,0,0,0c0-3.9-3.1-7-7-7l-223.4,0c-3.9,0-7,3.1-7,7c0,8-6.5,14.6-14.6,14.6
	c-3.9,0-7,3.1-7,7v31.3L96,229.5v-68.3L132.8,161.2z M82,221.4l-17.1-9.8L82,199.4L82,221.4z"/>
</svg>
