<?xml version="1.0" encoding="utf-8"?>
<!-- Generator: Adobe Illustrator 21.0.0, SVG Export Plug-In . SVG Version: 6.00 Build 0)  -->
<svg version="1.1" id="Capa_1" xmlns="http://www.w3.org/2000/svg" xmlns:xlink="http://www.w3.org/1999/xlink" x="0px" y="0px"
	 viewBox="0 0 512 512" style="enable-background:new 0 0 512 512;" xml:space="preserve">
<g>
	<path d="M436,150.6h-59.6V80.3c0-44.3-36-80.3-80.3-80.3h-5c-12.6,0-24.5,2.9-35.1,8.1C245.4,2.9,233.5,0,220.9,0
		c-44.3,0-80.3,36-80.3,80.3v70.3H76L59.5,512h392.9L436,150.6z M295.5,28.9c27.7,0,50.9,23.7,50.9,51.4v70.3h-45.2V80.3
		c0-18.7-6.5-36-17.3-49.7C283.9,30.6,285.6,28.9,295.5,28.9z M256,44.5c9.3,9.1,15.1,21.8,15.1,35.8v70.3h-30.1V80.3
		C240.9,66.3,246.7,53.6,256,44.5z M170.7,80.3c0-27.7,22.5-50.2,50.2-50.2c2.5,0,4.9,0.2,7.2,0.5c-10.8,13.7-17.3,30.9-17.3,49.7
		v70.3h-40.2V80.3z M104.7,180.7h35.8v301.2H91.1L104.7,180.7z M170.7,481.9V180.7h40.2v30.1h30.1v-30.1h105.4v30.1h30.1v-30.1h30.8
		l13.7,301.2H170.7z"/>
</g>
</svg>
