<?xml version="1.0" encoding="utf-8"?>
<!-- Generator: Adobe Illustrator 21.0.0, SVG Export Plug-In . SVG Version: 6.00 Build 0)  -->
<svg version="1.1" id="Layer_1" xmlns="http://www.w3.org/2000/svg" xmlns:xlink="http://www.w3.org/1999/xlink" x="0px" y="0px"
	 viewBox="0 0 30 30" style="enable-background:new 0 0 30 30;" xml:space="preserve">
<style type="text/css">
	.st0{stroke:#000000;stroke-width:2.5;stroke-linecap:round;stroke-linejoin:bevel;}
</style>
<path d="M28.6,14.2c-2.8-4.8-8-7.8-13.6-7.8s-10.8,3-13.6,7.8L1,14.8l0.4,0.6c2.8,4.8,8,7.8,13.6,7.8s10.8-3,13.6-7.8l0.4-0.6
	L28.6,14.2z M15.1,19.3c-2.8,0-5-2.2-5-4.9c0-2.7,2.2-4.9,5-4.9s5,2.2,5,4.9C20.1,17.1,17.9,19.3,15.1,19.3z M4,14.8
	c1.2-1.8,2.8-3.2,4.6-4.2C8,11.7,7.6,13,7.6,14.4c0,2,0.8,3.8,2.1,5.1C7.4,18.5,5.4,16.9,4,14.8z M20.8,19.3c1.2-1.3,1.9-3,1.9-4.9
	c0-1.3-0.3-2.5-0.9-3.6c1.7,1,3.1,2.3,4.2,4C24.7,16.7,22.9,18.3,20.8,19.3z"/>
<path class="st0" d="M26.7,3.1L3.3,26.5"/>
</svg>
