<?xml version="1.0" encoding="iso-8859-1"?>
<!-- Generator: Adobe Illustrator 18.1.1, SVG Export Plug-In . SVG Version: 6.00 Build 0)  -->
<svg version="1.1" id="Capa_1" xmlns="http://www.w3.org/2000/svg" xmlns:xlink="http://www.w3.org/1999/xlink" x="0px" y="0px"
	 viewBox="0 0 54.308 54.308" style="enable-background:new 0 0 54.308 54.308;" xml:space="preserve">
<g>
	<path style="fill:#010002;" d="M53.583,25.902c-5.447-9.413-15.574-15.26-26.429-15.26S6.173,16.489,0.725,25.902L0,27.154
		l0.725,1.252c5.447,9.413,15.574,15.26,26.429,15.26s20.981-5.847,26.429-15.26l0.725-1.252L53.583,25.902z M27.425,36.032
		c-5.342,0-9.688-4.346-9.688-9.688s4.346-9.688,9.688-9.688s9.688,4.346,9.688,9.688S32.767,36.032,27.425,36.032z M5.826,27.154
		c2.304-3.497,5.412-6.325,8.99-8.306c-1.312,2.198-2.08,4.756-2.08,7.496c0,3.911,1.546,7.459,4.046,10.094
		C12.377,34.469,8.542,31.276,5.826,27.154z M38.479,35.985c2.256-2.583,3.634-5.95,3.634-9.641c0-2.537-0.646-4.925-1.783-7.009
		c3.225,1.948,6.03,4.599,8.151,7.819C45.964,30.975,42.483,33.995,38.479,35.985z"/>
</g>
<g>
</g>
<g>
</g>
<g>
</g>
<g>
</g>
<g>
</g>
<g>
</g>
<g>
</g>
<g>
</g>
<g>
</g>
<g>
</g>
<g>
</g>
<g>
</g>
<g>
</g>
<g>
</g>
<g>
</g>
</svg>
