<svg id="Capa_1" enable-background="new 0 0 512 512" height="512" viewBox="0 0 512 512" width="512" xmlns="http://www.w3.org/2000/svg"><g><g><path d="m441.87 197.57c4.143 0 7.5-3.358 7.5-7.5v-41.15c0-4.142-3.357-7.5-7.5-7.5h-53.11v-55.128c0-47.582-38.71-86.292-86.292-86.292-16.637 0-32.59 4.707-46.475 13.633-13.423-8.613-29.362-13.633-46.46-13.633-47.582 0-86.293 38.71-86.293 86.292v55.127h-53.11c-4.142 0-7.5 3.358-7.5 7.5v49.72c0 4.142 3.358 7.5 7.5 7.5s7.5-3.358 7.5-7.5v-42.22h251.68v232.581c0 4.142 3.357 7.5 7.5 7.5s7.5-3.358 7.5-7.5v-232.58h38.542v301.07l-38.542 31.27v-64.76c0-4.142-3.357-7.5-7.5-7.5s-7.5 3.358-7.5 7.5v73h-251.68v-263.36c0-4.142-3.358-7.5-7.5-7.5s-7.5 3.358-7.5 7.5v270.86c0 4.142 3.358 7.5 7.5 7.5h371.74c4.143 0 7.5-3.358 7.5-7.5v-279.43c0-4.142-3.357-7.5-7.5-7.5s-7.5 3.358-7.5 7.5v263.297l-36.519-30.79v-301.157h36.519v33.65c0 4.142 3.358 7.5 7.5 7.5zm-51.61 273.225 31.079 26.205h-63.378zm-87.792-455.795c39.311 0 71.292 31.981 71.292 71.292v55.127h-17.325v-55.127c0-29.758-24.209-53.967-53.967-53.967-7.679 0-15.204 1.627-22.118 4.746-3.42-4.905-7.335-9.436-11.673-13.527 10.338-5.605 21.85-8.544 33.791-8.544zm-164.228 71.292c0-39.311 31.982-71.292 71.293-71.292s71.292 31.981 71.292 71.292v55.127h-17.325v-55.127c0-29.758-24.209-53.967-53.967-53.967s-53.968 24.209-53.968 53.967v55.127h-17.325zm77.935 55.128h-45.61v-55.128c0-21.487 17.481-38.967 38.968-38.967 5.156 0 10.076 1.016 14.584 2.842-5.209 11.277-7.942 23.619-7.942 36.125zm15-55.128c0-9.577 1.941-19.034 5.649-27.78 7.2 7.074 11.676 16.912 11.676 27.78v55.127h-17.325zm64.65 55.128v-55.128c0-12.888-2.86-25.114-7.947-36.106 4.605-1.868 9.546-2.861 14.589-2.861 21.486 0 38.967 17.48 38.967 38.967v55.127h-45.609z"/></g></g></svg>