<?xml version="1.0" encoding="utf-8"?>
<!-- Generator: Adobe Illustrator 21.0.0, SVG Export Plug-In . SVG Version: 6.00 Build 0)  -->
<svg version="1.1" id="Layer_1" xmlns="http://www.w3.org/2000/svg" xmlns:xlink="http://www.w3.org/1999/xlink" x="0px" y="0px"
	 viewBox="0 0 640 640" style="enable-background:new 0 0 640 640;" xml:space="preserve">
<path d="M199.3,310c35.7,0,64.6-28.9,64.6-64.6c0-35.7-28.9-64.6-64.6-64.6s-64.6,28.9-64.6,64.6C134.7,281,163.6,310,199.3,310z
	 M199.3,205.9c21.9,0,39.6,17.7,39.6,39.6c0,21.9-17.7,39.6-39.6,39.6c-21.9,0-39.6-17.7-39.6-39.6
	C159.6,223.6,177.4,205.9,199.3,205.9z"/>
<path d="M199.3,333.9c-26.4-0.2-51.8,10.4-70.3,29.4c-18.8,19.1-29,45.1-29,73.4c0,6.9,5.6,12.5,12.5,12.5H286
	c6.9,0,12.5-5.6,12.5-12.5c0-28.3-10.3-54.3-29-73.4C251.1,344.3,225.7,333.7,199.3,333.9z M125.9,424.1c2.1-16.3,9.5-31.6,21-43.4
	c13.8-14,32.7-21.9,52.4-21.9s38.5,7.9,52.4,21.9c11.5,11.8,18.8,27,21,43.4H125.9z"/>
<path d="M557.5,93.8h-475c-34.5,0-62.5,28-62.5,62.5v317.5c0,34.5,28,62.5,62.5,62.5h475c34.5,0,62.5-28,62.5-62.5V156.3
	C620,121.7,592,93.8,557.5,93.8z M595,473.8c-0.1,20.7-16.8,37.4-37.5,37.5h-475c-20.7-0.1-37.4-16.8-37.5-37.5V156.3
	c0.1-20.7,16.8-37.4,37.5-37.5h475c20.7,0.1,37.4,16.8,37.5,37.5V473.8z"/>
<path d="M526.8,302.5H381.1c-6.9,0-12.5,5.6-12.5,12.5s5.6,12.5,12.5,12.5h145.6c6.9,0,12.5-5.6,12.5-12.5S533.7,302.5,526.8,302.5z
	"/>
<path d="M526.8,382.5H381.1c-6.9,0-12.5,5.6-12.5,12.5s5.6,12.5,12.5,12.5h145.6c6.9,0,12.5-5.6,12.5-12.5S533.7,382.5,526.8,382.5z
	"/>
<path d="M526.8,222.5H381.1c-6.9,0-12.5,5.6-12.5,12.5s5.6,12.5,12.5,12.5h145.6c6.9,0,12.5-5.6,12.5-12.5S533.7,222.5,526.8,222.5z
	"/>
</svg>
