<?xml version="1.0" encoding="utf-8"?>
<!-- Generator: Adobe Illustrator 21.0.0, SVG Export Plug-In . SVG Version: 6.00 Build 0)  -->
<svg version="1.1" id="Layer_1" xmlns="http://www.w3.org/2000/svg" xmlns:xlink="http://www.w3.org/1999/xlink" x="0px" y="0px"
	 viewBox="0 0 512 512" style="enable-background:new 0 0 512 512;" xml:space="preserve">
<path d="M493,96.8c0-0.1,0-0.1,0-0.2s0-0.3,0-0.4c0-0.6-0.2-1.1-0.3-1.6c0-0.1,0-0.1,0-0.2s0-0.1-0.1-0.1c-0.2-0.6-0.5-1.1-0.9-1.6
	c-0.1-0.1-0.2-0.2-0.3-0.3c-0.4-0.4-0.8-0.8-1.2-1.2c0,0-0.1-0.1-0.1-0.1c-0.5-0.3-1.1-0.6-1.7-0.8c-0.1,0-0.3-0.1-0.4-0.1
	c-0.6-0.2-1.3-0.3-1.9-0.3H26c-0.6,0-1.3,0.1-1.9,0.3c-0.1,0-0.3,0.1-0.4,0.1c-0.6,0.2-1.1,0.5-1.7,0.8c0,0-0.1,0.1-0.1,0.1
	c-0.5,0.3-0.9,0.7-1.2,1.2c-0.1,0.1-0.2,0.2-0.3,0.3c-0.4,0.5-0.7,1-0.9,1.6c0,0,0,0.1-0.1,0.1s0,0.1,0,0.2
	c-0.2,0.5-0.3,1.1-0.3,1.6c0,0.1,0,0.3,0,0.4s0,0.1,0,0.2v318.5c0,0.1,0,0.2,0,0.3c0,0.3,0,0.5,0.1,0.8c0,0.2,0.1,0.4,0.1,0.6
	c0.1,0.2,0.1,0.5,0.2,0.7c0.1,0.2,0.1,0.4,0.2,0.6c0.1,0.2,0.2,0.5,0.4,0.7c0.1,0.2,0.2,0.3,0.3,0.5c0.2,0.2,0.3,0.4,0.5,0.6
	c0.1,0.1,0.3,0.3,0.4,0.4c0.1,0.1,0.1,0.2,0.2,0.2s0.1,0.1,0.2,0.1c0.5,0.4,1.2,0.8,1.8,1.1c0.1,0.1,0.3,0.1,0.4,0.1
	c0.6,0.2,1.3,0.3,2,0.3c0,0,0.1,0,0.1,0h0.1h459.8h0.1c0,0,0.1,0,0.1,0c0.7,0,1.3-0.1,2-0.3c0.1,0,0.3-0.1,0.4-0.1
	c0.7-0.3,1.3-0.6,1.8-1.1c0.1-0.1,0.1-0.1,0.2-0.1s0.2-0.2,0.2-0.2c0.1-0.1,0.3-0.3,0.4-0.4c0.2-0.2,0.3-0.4,0.5-0.6
	c0.1-0.2,0.2-0.3,0.3-0.5c0.1-0.2,0.3-0.5,0.4-0.7c0.1-0.2,0.1-0.4,0.2-0.6c0.1-0.2,0.2-0.5,0.2-0.7c0-0.2,0.1-0.4,0.1-0.6
	c0-0.2,0.1-0.5,0.1-0.8c0-0.1,0-0.2,0-0.3L493,96.8z M183.2,241.3l68.2,58.7c2.6,2.3,6.5,2.3,9.1,0l68.2-58.7l142,167H41.2
	L183.2,241.3z M33,396.2V112l139.6,120.1L33,396.2z M339.4,232.1L479,112v284.2L339.4,232.1z M467.1,103.8L325.1,226
	c0,0-0.1,0-0.1,0.1s0,0.1-0.1,0.1L256,285.4l-68.9-59.3c0,0,0-0.1-0.1-0.1l-0.1-0.1l-142-122.2L467.1,103.8z"/>
</svg>
