<?xml version="1.0" encoding="utf-8"?>
<!-- Generator: Adobe Illustrator 21.0.0, SVG Export Plug-In . SVG Version: 6.00 Build 0)  -->
<svg version="1.1" id="Capa_1" xmlns="http://www.w3.org/2000/svg" xmlns:xlink="http://www.w3.org/1999/xlink" x="0px" y="0px"
	 viewBox="0 0 512 512" style="enable-background:new 0 0 512 512;" xml:space="preserve">
<g>
	<g>
		<g>
			<path d="M253,73.6H64.5c-4.1,0-7.5,3.4-7.5,7.5s3.4,7.5,7.5,7.5H253c4.1,0,7.5-3.4,7.5-7.5S257.1,73.6,253,73.6L253,73.6z"/>
			<path d="M260.5,132.6c0-4.1-3.4-7.5-7.5-7.5H64.5c-4.1,0-7.5,3.4-7.5,7.5s3.4,7.5,7.5,7.5H253
				C257.1,140.1,260.5,136.7,260.5,132.6z"/>
			<path d="M64.5,176.6c-4.1,0-7.5,3.4-7.5,7.5s3.4,7.5,7.5,7.5h94.2c4.1,0,7.5-3.4,7.5-7.5s-3.4-7.5-7.5-7.5H64.5z"/>
			<path d="M141.8,497H32.4c-9,0-16.3-7.3-16.3-16.3V31.3c0-9,7.3-16.3,16.3-16.3c279.2,0.1,262.3-0.2,264.8,0.2v62.7
				c0,14.6,11.9,26.4,26.4,26.4h62.7c0.1,0.8,0.2,1.6,0.2,2.3v43.5c0,4.1,3.4,7.5,7.5,7.5s7.5-3.4,7.5-7.5v-43.5
				c0-7.4-2.6-14.4-7.3-20.1c0,0,0,0,0,0c-0.6-0.7-76.3-76.8-79.3-79.3c0,0,0,0,0,0C309.3,2.6,302.3,0,294.8,0H32.4
				C15.2,0,1.2,14,1.2,31.3v449.5c0,17.2,14,31.3,31.3,31.3h109.3c4.1,0,7.5-3.4,7.5-7.5S145.9,497,141.8,497L141.8,497z
				 M312.2,77.9V25.6l63.7,63.7h-52.3C317.3,89.3,312.2,84.2,312.2,77.9z"/>
			<path d="M506.4,279.9c-0.1-0.2-0.2-0.3-0.3-0.5c-5.8-9.5-16.3-15.9-28.2-15.9h-26.3c-7.9-57.8-57.6-102.4-117.5-102.4
				s-109.6,44.7-117.5,102.4h-26.3c-18,0-32.9,14.7-32.9,32.9v182.6c0,18.1,14.7,32.9,32.9,32.9h287.6c18.2,0,32.9-14.8,32.9-32.9
				V296.5C510.8,290.4,509.2,284.8,506.4,279.9L506.4,279.9z M495.8,479.1c0,2.7-0.6,5.2-1.7,7.5l-118.8-106l120.4-85.2
				C495.9,296.8,495.8,407.6,495.8,479.1z M477.9,278.5c4,0,7.7,1.3,10.7,3.6l-39.9,28.2c2.6-10,4-20.3,4-30.6c0-0.4,0-0.8,0-1.2
				L477.9,278.5L477.9,278.5z M334.1,176.1c57.1,0,103.6,46.5,103.6,103.6c0,16.2-3.6,31.6-10.8,46l-63.1,44.6l-5.4-4.8
				c-6-5.4-13.4-8.4-21-9.2c2.4-1.3,4-3.8,4-6.7v-8.1c31.8-6.5,40.4-52.7,6.1-64.8c-2-0.7-4.1-1.5-6.1-2.2v-33.4
				c5,1.3,8,3.8,8.3,4.1c3,2.8,7.8,2.5,10.5-0.5c2.8-3,2.6-7.8-0.4-10.6c-0.4-0.4-7.2-6.5-18.4-8.3v-6.7c0-4.1-3.4-7.5-7.5-7.5
				s-7.5,3.4-7.5,7.5v7.2c-1,0.2-2,0.5-3,0.8c-21.9,6.6-27.7,36.4-11.7,48.9c3.7,2.9,8.4,5.6,14.8,8.5v42.6
				c-5.6-0.4-9.1-1.8-15.2-5.8c-3.5-2.3-8.1-1.3-10.4,2.2c-2.3,3.5-1.3,8.1,2.2,10.4c9.1,6,15.4,7.8,23.4,8.3v7.5
				c0,2.9,1.6,5.4,4,6.7c-7.6,0.7-14.9,3.8-21,9.2l-5.4,4.8l-63.1-44.6c-7.1-14.4-10.8-29.8-10.8-46
				C230.5,222.6,277,176.1,334.1,176.1L334.1,176.1z M341.6,290.6c0.4,0.1,0.8,0.3,1.1,0.4c18.1,6.4,13.9,29.3-1.1,35V290.6z
				 M326.6,267.9c-2.1-1.1-3.9-2.3-5.5-3.6c-5.9-4.7-3.9-18.3,5.5-22.3V267.9z M174,486.6c-1.1-2.3-1.7-4.8-1.7-7.5
				c0-71.5,0-182.3,0.1-183.7c12.4,8.8,106.3,75.2,120.4,85.2L174,486.6z M215.5,278.5c0,0.4,0,0.8,0,1.2c0,10.3,1.4,20.7,4,30.6
				l-39.9-28.2c3-2.2,6.7-3.6,10.7-3.6L215.5,278.5L215.5,278.5z M190.3,497c-1.6,0-3.2-0.2-4.7-0.6
				c8.6-7.6,127.6-113.9,134.1-119.6c8.2-7.3,20.6-7.3,28.9,0l134.1,119.6c-1.5,0.4-3.1,0.6-4.7,0.6L190.3,497z"/>
		</g>
	</g>
</g>
</svg>
