<?xml version="1.0" encoding="utf-8"?>
<!-- Generator: Adobe Illustrator 21.0.0, SVG Export Plug-In . SVG Version: 6.00 Build 0)  -->
<svg version="1.1" id="Capa_1" xmlns="http://www.w3.org/2000/svg" xmlns:xlink="http://www.w3.org/1999/xlink" x="0px" y="0px"
	 viewBox="0 0 435.1 435.1" style="enable-background:new 0 0 435.1 435.1;" xml:space="preserve">
<g>
	<g>
		<g>
			<path d="M351.4,177.2c-25.4-26.7-58.5-44.8-94.6-52h-0.1c1.6-7.7,3.4-15.5,5.4-22.3c0.1-0.3,0.2-0.6,0.2-0.9l0.8-2.6
				c2-6.5,2.4-11,2.9-11c10.4-0.3,20.3-4.6,27.6-12c7.3-7.1,11.5-16.9,11.6-27.1c0-6.3-1.5-12.5-4.4-18
				c-9.9-19.3-33.6-26.9-52.9-16.9c-1.6-2-3.5-3.8-5.5-5.5c-16.7-13.7-41.4-11.3-55.2,5.5c-5.7-2.9-12-4.4-18.3-4.4
				c-21.7,0.2-39.1,17.9-39,39.6c0.2,10.2,4.4,20,11.8,27.1c7.3,7.4,17.2,11.7,27.6,12c0.4,0,0.8,4.5,2.9,11
				c2.3,7.3,4.4,16.4,6.3,25.6c-36.2,7.2-69.2,25.3-94.6,52c-26,27.2-40.6,63.2-40.9,100.8C43.3,321,62,361.6,94.4,389.6
				c34.1,29.8,77.9,46,123.1,45.6c45.2,0.4,89.1-15.8,123.1-45.6c32.4-28,51.2-68.6,51.6-111.4C392,240.5,377.4,204.4,351.4,177.2z
				 M169,72.3c-6.1-0.4-11.8-3-16-7.4c-4.3-4.1-6.9-9.8-7-15.7c0-5.5,2-10.9,5.5-15.1c8.3-9.7,22.9-10.9,32.7-2.6
				c0.6,0.6,1.4,1,2.2,1.4c4.1,1.7,8.8-0.2,10.5-4.3c1.9-3.7,4.8-6.9,8.4-9.1c7.5-4.6,16.9-4.6,24.4,0c3.7,2.3,6.7,5.6,8.6,9.4
				c0.3,0.6,0.7,1.2,1.2,1.8c2.9,3.3,7.9,3.7,11.3,0.8c4.2-3.6,9.5-5.6,15.1-5.5c12.8,0,23.1,10.4,23.1,23.2c-0.2,6-2.7,11.6-7,15.7
				c-4.2,4.4-9.9,7.1-16,7.4c-7.9,0-13.5,8-17.5,20h-61.7C182.6,80.5,177.1,72.4,169,72.3z M243.9,108.6c-1.2,4.9-2.3,10-3.3,15h-46
				c-1-5-2.1-10-3.3-15H243.9z M329.9,377.6c-31.1,27.1-71.1,41.8-112.4,41.4c-41.3,0.4-81.3-14.3-112.4-41.4
				c-28.9-25-45.7-61.2-46.1-99.4c0.2-33.5,13.3-65.7,36.5-89.9c24.8-26,57.4-43.1,92.9-48.7h58.1l0.1,0.2
				c35.5,5.5,68.1,22.6,92.9,48.5c23.2,24.2,36.3,56.4,36.5,90C375.6,316.4,358.8,352.6,329.9,377.6z"/>
			<path d="M256.7,272.3c-9.5-5.7-20.2-9.4-31.2-10.7v-37c5.4,0.5,10.8,1.6,16,3.3c4.4,1.6,9,2.8,13.6,3.6c6.6,0,9.8-3.6,9.8-10.7
				c0-3.5-2.7-6.6-8-9.3c-10-4.3-20.6-6.6-31.5-6.8v-13.2c0-4.4-3.6-8-8-8s-8,3.6-8,8v13.7c-9.7,1.3-18.8,5.1-26.6,11
				c-9.8,6.6-15.6,17.6-15.6,29.4c-0.2,8.7,3.6,17,10.3,22.6c3.4,2.6,7.3,4.6,11.4,5.9c4.1,1.5,8.3,2.8,12.6,3.6
				c2.3,0.4,5,0.9,8,1.3v40.5c-5.9-0.8-11.8-2.1-17.4-4c-5.3-1.9-10.8-3.4-16.4-4.5c-6.8,0-10.2,4-10.2,12c0,4.3,5.5,8.3,16.6,12
				c8.9,2.9,18.1,4.6,27.4,5.2v13.3c0,4.4,3.6,8,8,8s8-3.6,8-8V340c10.6-0.7,20.8-4.3,29.4-10.5c9.6-7.1,15.1-18.6,14.6-30.5
				C269.5,286.8,265.3,277.9,256.7,272.3z M209.5,259.3l-3.2-0.5c-2.7-0.6-5.4-1.3-8-2.3c-2.7-0.7-5.1-2.3-6.8-4.5
				c-1.3-2.1-2-4.6-1.9-7.1c0-6.1,3.2-11.7,8.4-14.8c3.5-2.4,7.4-4.1,11.5-4.9L209.5,259.3L209.5,259.3z M247.2,300.2
				c0.1,6-3.1,11.6-8.4,14.5c-4,2.4-8.6,4-13.2,4.7v-37.6c4.9,1,9.6,2.6,14.1,4.8C244.7,289.2,247.6,294.6,247.2,300.2z"/>
		</g>
	</g>
</g>
</svg>
