<svg width="387" height="387" viewBox="0 0 387 387" fill="none" xmlns="http://www.w3.org/2000/svg">
<path d="M193.5 387C147.684 387 103.246 370.701 68.3728 341.103C60.1845 334.159 52.5035 326.459 45.5451 318.22C16.1731 283.405 0 239.114 0 193.5C0 141.814 20.127 93.2216 56.6743 56.6743C93.2216 20.127 141.814 0 193.5 0C245.186 0 293.778 20.127 330.326 56.6743C366.873 93.2216 387 141.814 387 193.5C387 239.115 370.827 283.406 341.459 318.215C334.496 326.459 326.815 334.159 318.625 341.106C283.754 370.701 239.316 387 193.5 387ZM193.5 24.1875C100.141 24.1875 24.1875 100.141 24.1875 193.5C24.1875 233.413 38.3364 272.165 64.0281 302.618C70.1203 309.831 76.8482 316.576 84.0213 322.66C114.531 348.553 153.41 362.812 193.5 362.812C233.59 362.812 272.469 348.553 302.976 322.662C310.152 316.576 316.88 309.831 322.976 302.613C348.664 272.166 362.812 233.414 362.812 193.5C362.812 100.141 286.859 24.1875 193.5 24.1875Z" fill="#E0E0E0"/>
<path d="M193.5 193.5C153.489 193.5 120.938 160.949 120.938 120.938C120.938 80.9261 153.489 48.375 193.5 48.375C233.511 48.375 266.062 80.9261 266.062 120.938C266.062 160.949 233.511 193.5 193.5 193.5ZM193.5 72.5625C166.826 72.5625 145.125 94.2632 145.125 120.938C145.125 147.612 166.826 169.312 193.5 169.312C220.174 169.312 241.875 147.612 241.875 120.938C241.875 94.2632 220.174 72.5625 193.5 72.5625Z" fill="#E0E0E0"/>
<path d="M310.811 343.98C309.836 343.98 308.846 343.861 307.857 343.613C301.379 341.987 297.446 335.417 299.072 328.939C301.242 320.289 302.344 311.342 302.344 302.344C302.344 243.171 254.236 194.357 195.093 193.508L193.5 193.5L191.907 193.508C132.764 194.357 84.6562 243.171 84.6562 302.344C84.6562 311.342 85.7575 320.289 87.9284 328.939C89.5542 335.417 85.6207 341.987 79.143 343.613C72.6653 345.239 66.0946 341.306 64.4688 334.828C61.8142 324.254 60.4688 313.325 60.4688 302.344C60.4688 267.137 74.0871 233.951 98.815 208.897C123.519 183.867 156.476 169.813 191.615 169.322C191.672 169.321 191.728 169.321 191.784 169.321L193.5 169.312L195.216 169.32C195.272 169.32 195.328 169.32 195.385 169.321C230.524 169.811 263.481 183.867 288.185 208.896C312.913 233.951 326.531 267.137 326.531 302.344C326.531 313.325 325.186 324.254 322.531 334.828C321.153 340.317 316.225 343.979 310.811 343.98Z" fill="#E0E0E0"/>
</svg>
