<?xml version="1.0" encoding="utf-8"?>
<!-- Generator: Adobe Illustrator 21.0.0, SVG Export Plug-In . SVG Version: 6.00 Build 0)  -->
<svg version="1.1" id="Layer_1" xmlns="http://www.w3.org/2000/svg" xmlns:xlink="http://www.w3.org/1999/xlink" x="0px" y="0px"
	 viewBox="0 0 512 512" style="enable-background:new 0 0 512 512;" xml:space="preserve">
<style type="text/css">
	.st0{fill:#FFFFFF;}
</style>
<g>
	<path d="M91.7,439.4c-2-0.8-3.5-1.9-1.1-3.9c1.4-1.2,3.1-2.1,4.6-3.1c14.6-9.5,28.3-19.9,37.4-35.2c7.6-12.8,6.4-20.2-3.1-29.7
		c-52.9-53-76.3-116.4-64.6-191.3c6.6-42.3,26-78.8,54.1-110.5c17-19.2,37.2-34.7,59.3-47.7c1.3-0.8,3.3-1,3.5-3
		c-0.4-1.1-1.3-0.8-2-0.8c-37.6,0-75.3-0.7-112.9,0.2C31.1,15.5-0.1,43.3,0,83.3c0.2,116.6,0,233.3,0,349.9
		c0,36.2,27.6,66.5,63.7,67.9c30.5,1.2,61.1,0.2,91.6,0.2c2.2,0.1,4.5,0.2,6.7,0.2c53.8,0,107.7,0,161.5,0
		c40.2,0,80.5,0.2,120.7-0.1c37.8-0.2,67.6-30.3,67.6-68.1c0-21.8,0-43.6,0-65.4c0-1.6,0.5-3.3-0.5-4.9c-2,0.2-2.8,1.8-3.9,2.9
		c-21.9,21.9-47,39.2-75.3,51.6c-68.8,30.3-138.8,32.5-209.7,8c-6.5-2.2-12.8-2.5-19.2-0.8c-9.4,2.4-18.7,5.2-27.9,8
		C148,441.2,120.2,445.1,91.7,439.4z M172.7,251.1c1.9-2.4,2.9-3.9,4.1-5.4c14.6-18.6,29.3-37.1,43.9-55.7
		c4.3-5.4,8.5-10.9,11.2-17.3c3.1-7.4-0.3-14.3-7.8-17c-3.4-1.2-7-1.3-10.5-1.3c-19.9-0.1-39.9-0.1-59.8,0c-2.8,0-5.6,0.3-8.3,1
		c-5.6,1.6-8.9,6.1-8.9,11.5c0,5.4,3.5,9.9,9.1,11.3c2.7,0.7,5.5,0.9,8.3,0.9c12.1,0.1,24.2,0,36.3,0.1c1.3,0,3-0.8,4,1.1
		c-1,1.3-2,2.6-3,3.9c-17.3,22-34.6,43.9-51.8,65.9c-4.3,5.5-6.5,11.5-3.3,18.2c3.1,6.7,9.4,8,15.9,8.3c5.2,0.3,10.4,0.1,15.6,0.1
		c18.1,0,36.1,0.1,54.2-0.1c9.6-0.1,14.7-6,13.7-14.8c-0.8-7-5.6-10.8-14.5-10.8C205.4,251,189.6,251.1,172.7,251.1z M302.4,192.3
		c-14-12.2-29.4-12.9-44.5-4c-18.3,10.7-25.1,28.3-22.7,48.7c2.2,19,10.4,34.5,30.3,41c12.4,4,23.9,2.6,34.1-5.7
		c2.6-2.1,3.4-1.7,5.3,0.7c3.8,4.9,9.9,6.3,15.6,4.3c5.5-1.9,9.3-6.5,9.3-12.7c0.1-22.3,0.2-44.7-0.1-67
		c-0.1-8.9-8.4-14.6-17.2-12.8C307.8,185.6,305.1,188.8,302.4,192.3z M379.8,233.7c-0.4,27.9,22.7,49.1,51.8,46.2
		c26.7-2.7,44.1-22.7,43.2-51c-0.9-27.9-21.7-47-50.2-46.2C397.8,183.6,379,205,379.8,233.7z M370.1,211.5c0-17.5,0.1-35,0-52.5
		c-0.1-8.9-5.8-14.5-14.2-14.4c-8.2,0.1-13.7,5.7-13.8,14.3c-0.1,5.2,0,10.4,0,15.6c0,29.6,0,59.2,0,88.8c0,7,4.2,13,9.9,14.4
		c9.4,2.4,18.1-4.3,18.2-14.2C370.1,246.2,370.1,228.8,370.1,211.5z"/>
	<path d="M155.3,501.2c-30.5,0-61.1,1-91.6-0.2C27.6,499.7,0,469.3,0,433.2C0,316.5,0.3,199.9,0,83.3c-0.1-40,31.1-67.8,67-68.7
		c37.6-1,75.3-0.2,112.9-0.2c0.7,0,1.5-0.3,2,0.8c-0.2,2-2.2,2.2-3.5,3c-22.1,13-42.4,28.5-59.3,47.7C90.9,97.5,71.5,134,64.9,176.3
		c-11.6,74.8,11.7,138.3,64.6,191.3c9.4,9.4,10.6,16.9,3.1,29.7c-9.1,15.3-22.8,25.7-37.4,35.2c-1.6,1-3.2,1.9-4.6,3.1
		c-2.4,2-0.9,3,1.1,3.9c0.5,0.9,0.9,2.1,1.7,2.8c12.8,11.4,25,23.6,37.6,35.2c6,5.5,11.9,11.1,17.6,16.9
		C150.8,496.6,154.8,497.3,155.3,501.2z"/>
	<path d="M155.3,501.2c-0.6-3.9-4.5-4.6-6.8-6.9c-5.7-5.8-11.6-11.4-17.6-16.9c-12.6-11.6-24.8-23.8-37.6-35.2
		c-0.8-0.7-1.1-1.8-1.7-2.8c28.5,5.6,56.3,1.8,83.8-6.6c9.3-2.8,18.5-5.6,27.9-8c6.4-1.6,12.7-1.4,19.2,0.8
		c70.9,24.4,140.9,22.2,209.7-8c28.3-12.4,53.4-29.8,75.3-51.6c1.1-1.1,1.9-2.7,3.9-2.9c1,1.6,0.5,3.3,0.5,4.9c0,21.8,0,43.6,0,65.4
		c0,37.7-29.8,67.9-67.6,68.1c-40.2,0.2-80.5,0.1-120.7,0.1c-53.8,0-107.7,0-161.5,0C159.8,501.4,157.6,501.3,155.3,501.2z"/>
	<path d="M172.7,251.1c16.9,0,32.7-0.1,48.5,0c8.9,0.1,13.7,3.8,14.5,10.8c1,8.8-4.1,14.7-13.7,14.8c-18.1,0.2-36.1,0.1-54.2,0.1
		c-5.2,0-10.4,0.2-15.6-0.1c-6.5-0.4-12.8-1.7-15.9-8.3c-3.1-6.7-0.9-12.7,3.3-18.2c17.3-22,34.6-43.9,51.8-65.9c1-1.3,2-2.6,3-3.9
		c-1.1-1.9-2.7-1.1-4-1.1c-12.1-0.1-24.2,0-36.3-0.1c-2.8,0-5.6-0.2-8.3-0.9c-5.6-1.5-9-6-9.1-11.3c0-5.4,3.3-9.9,8.9-11.5
		c2.6-0.7,5.5-1,8.3-1c19.9-0.1,39.9-0.1,59.8,0c3.5,0,7.1,0.1,10.5,1.3c7.6,2.6,10.9,9.6,7.8,17c-2.7,6.4-6.9,11.9-11.2,17.3
		c-14.6,18.6-29.3,37.2-43.9,55.7C175.6,247.2,174.6,248.7,172.7,251.1z"/>
	<path d="M302.4,192.3c2.7-3.4,5.4-6.7,10-7.6c8.8-1.8,17.1,3.9,17.2,12.8c0.3,22.3,0.2,44.7,0.1,67c0,6.1-3.8,10.8-9.3,12.7
		c-5.8,2-11.8,0.5-15.6-4.3c-1.9-2.4-2.7-2.8-5.3-0.7c-10.2,8.3-21.7,9.7-34.1,5.7c-19.9-6.5-28.1-22-30.3-41
		c-2.3-20.4,4.5-37.9,22.7-48.7C273,179.3,288.4,180.1,302.4,192.3z M262.9,233.1c0.1,3.8,1.4,9,4.7,13.5c7.2,9.8,22.1,9.7,29.3,0
		c6.3-8.5,6.2-22.5,0-30.9c-3.3-4.5-7.7-6.8-13.3-7.1C271.3,207.8,262.7,217.3,262.9,233.1z"/>
	<path d="M379.8,233.7c-0.9-28.7,18-50.2,44.8-51c28.5-0.9,49.3,18.3,50.2,46.2c0.9,28.3-16.5,48.3-43.2,51
		C402.6,282.8,379.4,261.7,379.8,233.7z M408,231c0,5.7,1.3,11.1,4.8,15.7c7.1,9.5,21.8,9.6,29,0.2c6.5-8.4,6.5-22.8,0.1-31.3
		c-3.3-4.5-7.8-6.7-13.3-7C416.4,207.9,408,217.1,408,231z"/>
	<path d="M370.1,211.5c0,17.3,0.1,34.6,0,52c-0.1,9.9-8.8,16.6-18.2,14.2c-5.6-1.4-9.9-7.4-9.9-14.4c0-29.6,0-59.2,0-88.8
		c0-5.2-0.1-10.4,0-15.6c0.1-8.6,5.6-14.2,13.8-14.3c8.5-0.1,14.2,5.5,14.2,14.4C370.1,176.5,370.1,194,370.1,211.5z"/>
	<path class="st0" d="M262.9,233.1c-0.1-15.8,8.5-25.3,20.7-24.6c5.5,0.3,10,2.7,13.3,7.1c6.3,8.4,6.3,22.5,0,30.9
		c-7.2,9.8-22.1,9.8-29.3,0C264.2,242.1,263,237,262.9,233.1z"/>
	<path class="st0" d="M408,231c0.1-13.9,8.5-23.1,20.5-22.5c5.5,0.3,10,2.6,13.3,7c6.4,8.5,6.4,22.9-0.1,31.3
		c-7.2,9.4-21.9,9.3-29-0.2C409.3,242.1,407.9,236.8,408,231z"/>
</g>
</svg>
