<?xml version="1.0" encoding="iso-8859-1"?>
<!-- Generator: Adobe Illustrator 19.0.0, SVG Export Plug-In . SVG Version: 6.00 Build 0)  -->
<svg version="1.1" id="Capa_1" xmlns="http://www.w3.org/2000/svg" xmlns:xlink="http://www.w3.org/1999/xlink" x="0px" y="0px"
	 viewBox="0 0 394.8 394.8" style="enable-background:new 0 0 394.8 394.8;" xml:space="preserve">
<g>
	<g>
		<g>
			<path d="M222.617,168.8l-38.8,38.8l-11.6-11.6c-3.2-3.2-8.8-3.2-12,0s-3.2,8.8,0,12l17.6,17.6c3.2,3.2,8.8,3.2,12,0l44.8-44.8
				c3.2-3.2,3.2-8.8,0-12S225.817,165.6,222.617,168.8z"/>
			<path d="M197.417,122c-19.2,0-38.4,7.2-53.2,22c-14.8,14.8-22,34-22,53.2s7.2,38.4,22,53.2c14.8,14.4,34,22,53.2,22
				s38.4-7.2,53.2-22c14.8-14.8,22-34,22-53.2s-7.2-38.4-22-53.2C235.817,129.2,216.617,122,197.417,122z M238.217,238
				c-11.2,11.2-26,16.8-40.8,16.8s-29.6-5.6-40.8-16.8c-11.2-11.2-16.8-26-16.8-40.8c-0.4-14.8,5.2-29.6,16.8-40.8
				c11.2-11.2,26-16.8,40.8-16.8s29.6,5.6,40.8,16.8c11.2,11.2,16.8,26,16.8,40.8S249.417,226.8,238.217,238z"/>
			<path d="M345.417,78.8v-0.4l-76-76.4l-0.4-0.4c0,0-0.4,0-0.4-0.4c0,0-0.4,0-0.4-0.4c-1.2-0.8-2.4-0.8-4-0.8h-188.4
				c-7.6,0-14.4,3.2-19.2,8s-8,12-8,19.2v340.4c-0.4,7.2,2.8,14,7.6,19.2c5.2,4.8,12,8,19.2,8h243.6c7.2,0,14-2.8,18.8-7.6l0.4-0.4
				c4.8-4.8,8-12,8-19.2V82.8C346.217,81.2,345.817,80,345.417,78.8z M271.417,28.8h0.4l45.2,45.2h-33.2c-3.2,0-6-1.2-8.4-3.2
				l-0.4-0.4c-2-2-3.6-5.2-3.6-8.4V28.8z M329.417,367.2c0,2.8-1.2,5.2-3.2,7.2l-0.4,0.4c-2,1.6-4.4,2.8-6.8,2.8h-243.2
				c-2.8,0-5.2-1.2-7.2-2.8c-2-2-2.8-4.4-2.8-7.2V26.8h-0.4c0-2.8,1.2-5.2,2.8-7.2c2-2,4.4-2.8,7.2-2.8h179.2V62
				c0,8,3.2,15.2,8.8,20.8l0.4,0.4c5.2,5.2,12.4,8,20,8h45.6V367.2z"/>
		</g>
	</g>
</g>
<g>
</g>
<g>
</g>
<g>
</g>
<g>
</g>
<g>
</g>
<g>
</g>
<g>
</g>
<g>
</g>
<g>
</g>
<g>
</g>
<g>
</g>
<g>
</g>
<g>
</g>
<g>
</g>
<g>
</g>
</svg>
