<?xml version="1.0" encoding="iso-8859-1"?>
<!-- Generator: Adobe Illustrator 19.0.0, SVG Export Plug-In . SVG Version: 6.00 Build 0)  -->
<svg version="1.1" id="Capa_1" xmlns="http://www.w3.org/2000/svg" xmlns:xlink="http://www.w3.org/1999/xlink" x="0px" y="0px"
	 viewBox="0 0 435.123 435.123" style="enable-background:new 0 0 435.123 435.123;" xml:space="preserve">
<g>
	<g>
		<g>
			<path d="M351.381,177.235c-25.429-26.679-58.485-44.842-94.64-52h-0.08c1.6-7.68,3.36-15.48,5.4-22.28
				c0.097-0.289,0.177-0.582,0.24-0.88l0.8-2.64c2.04-6.48,2.44-11,2.88-11c10.392-0.29,20.268-4.59,27.56-12
				c7.304-7.148,11.476-16.901,11.6-27.12c0.008-6.278-1.49-12.467-4.367-18.047c-9.941-19.282-33.631-26.854-52.913-16.913
				c-1.64-2.001-3.473-3.834-5.474-5.474c-16.745-13.722-41.444-11.271-55.166,5.474c-5.665-2.921-11.956-4.419-18.329-4.366
				c-21.693,0.181-39.132,17.913-38.951,39.606c0.162,10.243,4.393,20.001,11.76,27.12c7.292,7.41,17.168,11.71,27.56,12
				c0.44,0,0.84,4.52,2.88,11c2.28,7.28,4.4,16.44,6.28,25.6c-36.155,7.158-69.211,25.321-94.64,52
				c-26.013,27.154-40.641,63.237-40.88,100.84c0.361,42.813,19.131,83.399,51.52,111.4c34.069,29.763,77.883,45.976,123.12,45.56
				c45.237,0.416,89.051-15.797,123.12-45.56c32.414-28.003,51.2-68.607,51.56-111.44
				C392.004,240.504,377.389,204.405,351.381,177.235z M169.021,72.315c-6.085-0.358-11.805-3.018-16-7.44
				c-4.337-4.1-6.869-9.754-7.04-15.72c-0.007-5.523,1.961-10.868,5.548-15.068c8.306-9.727,22.925-10.878,32.652-2.572
				c0.649,0.565,1.386,1.022,2.181,1.353c4.079,1.697,8.762-0.234,10.459-4.313c1.932-3.728,4.834-6.865,8.4-9.08
				c7.492-4.62,16.948-4.62,24.44,0c3.691,2.284,6.669,5.553,8.6,9.44c0.306,0.633,0.695,1.222,1.155,1.754
				c2.894,3.339,7.946,3.7,11.285,0.806c4.2-3.587,9.544-5.555,15.068-5.548c12.791,0.016,23.147,10.397,23.132,23.188
				c-0.171,5.966-2.703,11.62-7.04,15.72c-4.195,4.422-9.915,7.082-16,7.44c-7.88,0-13.48,8-17.48,20h-61.723
				C182.622,80.501,177.073,72.434,169.021,72.315z M243.861,108.555c-1.2,4.88-2.28,10-3.32,15.04h-46
				c-1-5.04-2.12-10.04-3.28-15.04H243.861z M329.941,377.555c-31.127,27.109-71.126,41.842-112.4,41.4
				c-41.274,0.442-81.273-14.291-112.4-41.4c-28.932-24.971-45.72-61.184-46.08-99.4c0.227-33.521,13.281-65.683,36.48-89.88
				c24.766-25.997,57.41-43.107,92.88-48.68h58.12l0.12,0.16c35.451,5.527,68.094,22.579,92.88,48.52
				c23.227,24.228,36.283,56.438,36.48,90C375.626,316.449,358.842,352.612,329.941,377.555z"/>
			<path d="M256.741,272.275c-9.53-5.729-20.161-9.382-31.2-10.72v-36.96c5.436,0.512,10.801,1.611,16,3.28
				c4.421,1.633,8.989,2.838,13.64,3.6c6.56,0,9.84-3.573,9.84-10.72c0-3.52-2.667-6.613-8-9.28c-9.962-4.26-20.648-6.568-31.48-6.8
				v-13.2c0-4.418-3.582-8-8-8s-8,3.582-8,8v13.72c-9.668,1.328-18.837,5.1-26.64,10.96c-9.774,6.593-15.635,17.61-15.64,29.4
				c-0.192,8.705,3.592,17.024,10.28,22.6c3.45,2.562,7.284,4.56,11.36,5.92c4.1,1.537,8.312,2.754,12.6,3.64
				c2.293,0.427,4.96,0.867,8,1.32v40.52c-5.925-0.787-11.764-2.127-17.44-4c-5.319-1.945-10.792-3.444-16.36-4.48
				c-6.773,0-10.16,4-10.16,12c0,4.32,5.52,8.333,16.56,12.04c8.89,2.88,18.111,4.614,27.44,5.16v13.28c0,4.418,3.582,8,8,8
				s8-3.582,8-8v-13.52c10.582-0.698,20.762-4.327,29.4-10.48c9.642-7.11,15.115-18.551,14.6-30.52
				C269.541,286.848,265.275,277.928,256.741,272.275z M209.541,259.275l-3.2-0.48c-2.721-0.571-5.396-1.346-8-2.32
				c-2.679-0.747-5.057-2.313-6.8-4.48c-1.338-2.126-1.994-4.611-1.88-7.12c0.024-6.062,3.208-11.672,8.4-14.8
				c3.466-2.378,7.367-4.05,11.48-4.92V259.275z M247.181,300.235c0.095,6.009-3.136,11.579-8.4,14.48
				c-4.047,2.449-8.553,4.041-13.24,4.68v-37.6c4.895,0.98,9.642,2.594,14.12,4.8C244.653,289.246,247.604,294.599,247.181,300.235z
				"/>
		</g>
	</g>
</g>
<g>
</g>
<g>
</g>
<g>
</g>
<g>
</g>
<g>
</g>
<g>
</g>
<g>
</g>
<g>
</g>
<g>
</g>
<g>
</g>
<g>
</g>
<g>
</g>
<g>
</g>
<g>
</g>
<g>
</g>
</svg>
