<svg id="outline" height="512" viewBox="0 0 512 512" width="512" xmlns="http://www.w3.org/2000/svg"><path d="m214.65063 139.16455a19.83273 19.83273 0 0 0 -2.19091-18.49951 23.99536 23.99536 0 0 0 6.134-11.459l11.09378-49.92186a25.8207 25.8207 0 0 0 -36.10059-29.01074l-6.27246-6.27344a27.3155 27.3155 0 0 0 -38.6289 0l-6.27246 6.27344a25.8209 25.8209 0 0 0 -36.10059 29.01172l11.09375 49.92089a23.99536 23.99536 0 0 0 6.134 11.459 19.83273 19.83273 0 0 0 -2.19091 18.49951 301.169 301.169 0 0 0 -105.34934 229.07079v23.76465a104.11791 104.11791 0 0 0 104 104h96a104.11791 104.11791 0 0 0 104-104v-23.76465a301.169 301.169 0 0 0 -105.34937-229.0708zm-78.65063-7.16455a4.004 4.004 0 0 1 4-4h56a4 4 0 0 1 0 8h-56a4.004 4.004 0 0 1 -4-4zm-11.42578-85.25977a9.808 9.808 0 0 1 11.33594-1.84082l4.51172 2.25586a7.998 7.998 0 0 0 9.23535-1.498l10.34277-10.34282a11.31192 11.31192 0 0 1 16 0l10.34277 10.34278a8.00336 8.00336 0 0 0 9.23535 1.498l4.51172-2.25586a9.82141 9.82141 0 0 1 13.97852 10.915l-11.09375 49.9209a7.95239 7.95239 0 0 1 -7.80961 6.26473h-54.33a7.95239 7.95239 0 0 1 -7.80957-6.26465l-11.09379-49.91992a9.774 9.774 0 0 1 2.64258-9.0752zm179.42578 345.25977a88.09957 88.09957 0 0 1 -88 88h-96a88.09957 88.09957 0 0 1 -88-88v-23.76465a285.19811 285.19811 0 0 1 98.95312-216.23535h74.09376a285.19811 285.19811 0 0 1 98.95312 216.23535z"/><path d="m152 264h-16a24 24 0 0 0 0 48h16a8.00039 8.00039 0 0 0 8-8v-32a8.00039 8.00039 0 0 0 -8-8zm-8 32h-8a8 8 0 0 1 0-16h8z"/><path d="m176 368a8.00039 8.00039 0 0 0 8 8h16a24 24 0 0 0 0-48h-16a8.00039 8.00039 0 0 0 -8 8zm16-24h8a8 8 0 0 1 0 16h-8z"/><path d="m192 208a8.00039 8.00039 0 0 0 -8-8h-32a8.00039 8.00039 0 0 0 -8 8v24h-8a56 56 0 0 0 0 112h8v16h-48a8.00039 8.00039 0 0 0 -8 8v32a8.00039 8.00039 0 0 0 8 8h48v24a8.00039 8.00039 0 0 0 8 8h32a8.00039 8.00039 0 0 0 8-8v-24h8a56 56 0 0 0 0-112h-8v-16h48a8.00039 8.00039 0 0 0 8-8v-32a8.00039 8.00039 0 0 0 -8-8h-48zm40 40v16h-48a8.00039 8.00039 0 0 0 -8 8v32a8.00039 8.00039 0 0 0 8 8h16a40 40 0 0 1 0 80h-16a8.00039 8.00039 0 0 0 -8 8v24h-16v-24a8.00039 8.00039 0 0 0 -8-8h-48v-16h48a8.00039 8.00039 0 0 0 8-8v-32a8.00039 8.00039 0 0 0 -8-8h-16a40 40 0 0 1 0-80h16a8.00039 8.00039 0 0 0 8-8v-24h16v24a8.00039 8.00039 0 0 0 8 8z"/><path d="m288 120a72 72 0 1 0 72-72 72.08124 72.08124 0 0 0 -72 72zm72-56a56 56 0 1 1 -56 56 56.0629 56.0629 0 0 1 56-56z"/><path d="m416 336h-16v-56a8.00039 8.00039 0 0 0 -8-8h-32a8.00039 8.00039 0 0 0 -8 8v56h-16a7.99925 7.99925 0 0 0 -6.14551 13.12109l40 48a7.99876 7.99876 0 0 0 12.291 0l40-48a7.99925 7.99925 0 0 0 -6.14549-13.12109zm-40 43.50391-22.91992-27.50391h6.91992a8.00039 8.00039 0 0 0 8-8v-56h16v56a8.00039 8.00039 0 0 0 8 8h6.91992z"/><path d="m454.14551 202.87891a7.99876 7.99876 0 0 0 -12.291 0l-40 48a7.99925 7.99925 0 0 0 6.14549 13.12109h16v56a8.00039 8.00039 0 0 0 8 8h32a8.00039 8.00039 0 0 0 8-8v-56h16a7.99925 7.99925 0 0 0 6.14551-13.12109zm9.85449 45.12109a8.00039 8.00039 0 0 0 -8 8v56h-16v-56a8.00039 8.00039 0 0 0 -8-8h-6.91992l22.91992-27.50391 22.91992 27.50391z"/><path d="m326.059 111.999h67.882v16.001h-67.882z" transform="matrix(.707 -.707 .707 .707 20.589 289.706)"/><circle cx="344" cy="104" r="8"/><circle cx="376" cy="136" r="8"/><path d="m352 16h16v16h-16z"/><path d="m284.117 44.118h16.001v16h-16.001z" transform="matrix(.707 -.707 .707 .707 48.707 221.823)"/><path d="m256 112h16v16h-16z"/><path d="m284.118 179.882h16v16.001h-16z" transform="matrix(.707 -.707 .707 .707 -47.294 261.588)"/><path d="m352 208h16v16h-16z"/><path d="m419.882 179.882h16.001v16h-16.001z" transform="matrix(.707 -.707 .707 .707 -7.529 357.588)"/><path d="m448 112h16v16h-16z"/><path d="m419.882 44.117h16v16.001h-16z" transform="matrix(.707 -.707 .707 .707 88.471 317.823)"/></svg>