<?xml version="1.0" encoding="utf-8"?>
<!-- Generator: Adobe Illustrator 21.0.0, SVG Export Plug-In . SVG Version: 6.00 Build 0)  -->
<svg version="1.1" id="Capa_1" xmlns="http://www.w3.org/2000/svg" xmlns:xlink="http://www.w3.org/1999/xlink" x="0px" y="0px"
	 viewBox="0 0 512 512" style="enable-background:new 0 0 512 512;" xml:space="preserve">
<g>
	<path d="M271,136C271,61.6,210.4,0,136,0S0,61.6,0,136c0,69.3,53.8,126,121,133.5V361H76c-8.4,0-15,6.6-15,15c0,8.4,6.6,15,15,15
		h45v45c0,8.4,6.6,15,15,15s15-6.6,15-15v-45h45c8.4,0,15-6.6,15-15c0-8.4-6.6-15-15-15h-45v-91.5C218.2,262,271,205.3,271,136z
		 M136,241c-57.9,0-106-47.1-106-105S78.1,30,136,30s105,48.1,105,106S193.9,241,136,241z"/>
	<path d="M391,242.5V112.3l34.5,34.2c5.7,6,15.3,6,21,0c6-5.7,6-15.3,0-21l-60-60c-5.7-6-15.3-6-21,0l-60,60c-6,5.7-6,15.3,0,21
		c5.7,6,15.3,6,21,0l34.5-34.2v130.2C293.8,250,241,306.7,241,376c0,74.4,60.6,136,135,136s136-61.6,136-136
		C512,306.7,458.2,250,391,242.5z M376,482c-57.9,0-105-48.1-105-106s47.1-105,105-105s106,47.1,106,105S433.9,482,376,482z"/>
</g>
</svg>
