<?xml version="1.0" encoding="utf-8"?>
<!-- Generator: Adobe Illustrator 21.0.0, SVG Export Plug-In . SVG Version: 6.00 Build 0)  -->
<svg version="1.1" id="Capa_1" xmlns="http://www.w3.org/2000/svg" xmlns:xlink="http://www.w3.org/1999/xlink" x="0px" y="0px"
	 viewBox="0 0 181.2 181.2" style="enable-background:new 0 0 181.2 181.2;" xml:space="preserve">
<g>
	<g>
		<path d="M148.6,0H32.6c-10,0-18.1,8.1-18.1,18.1v144.9c0,10,8.1,18.1,18.1,18.1h115.9c10,0,18.1-8.1,18.1-18.1V18.1
			C166.7,8.1,158.6,0,148.6,0z M159.4,163.1c0,6-4.9,10.9-10.9,10.9H32.6c-6,0-10.9-4.9-10.9-10.9V18.1c0-6,4.9-10.9,10.9-10.9
			h115.9c6,0,10.9,4.9,10.9,10.9L159.4,163.1L159.4,163.1L159.4,163.1z"/>
		<path d="M128.8,79.2H52.4c-1.8,0-3.3,1.5-3.3,3.3c0,1.8,1.5,3.3,3.3,3.3h76.4c1.8,0,3.3-1.5,3.3-3.3
			C132.1,80.7,130.6,79.2,128.8,79.2z"/>
		<path d="M128.8,94.4H52.4c-1.8,0-3.3,1.5-3.3,3.3s1.5,3.3,3.3,3.3h76.4c1.8,0,3.3-1.5,3.3-3.3C132.1,95.9,130.6,94.4,128.8,94.4z"
			/>
		<path d="M128.8,109.6H52.4c-1.8,0-3.3,1.5-3.3,3.3c0,1.8,1.5,3.3,3.3,3.3h76.4c1.8,0,3.3-1.5,3.3-3.3
			C132.1,111,130.6,109.6,128.8,109.6z"/>
		<path d="M128.8,124.7H90.6c-1.8,0-3.3,1.5-3.3,3.3c0,1.8,1.5,3.3,3.3,3.3h38.2c1.8,0,3.3-1.5,3.3-3.3
			C132.1,126.2,130.6,124.7,128.8,124.7z"/>
		<path d="M128.8,154.7H102c-1.8,0-3.3,1.5-3.3,3.3c0,1.8,1.5,3.3,3.3,3.3h26.7c1.8,0,3.3-1.5,3.3-3.3
			C132.1,156.2,130.6,154.7,128.8,154.7z"/>
		<path d="M94.3,64.6c0-6.3-7.3-14.8-17-17.3c4.1-2.8,6.9-8.2,6.9-13.1c0-6.9-5.6-12.5-12.5-12.5c-6.9,0-12.5,5.6-12.5,12.5
			c0,4.9,2.8,10.3,6.9,13.1c-9.8,2.5-17,11-17,17.3C49.1,72,94.3,72,94.3,64.6z M70.7,50.9L70.7,50.9l-2.1-2.4c1,0.4,2,0.6,3.1,0.6
			c1.1,0,2.1-0.2,3.1-0.6l-2.1,2.4h0L78,63.8l-6.3,6.3l-6.3-6.3L70.7,50.9z"/>
	</g>
</g>
</svg>
