<?xml version="1.0" encoding="utf-8"?>
<!-- Generator: Adobe Illustrator 21.0.0, SVG Export Plug-In . SVG Version: 6.00 Build 0)  -->
<svg version="1.1" id="Capa_1" xmlns="http://www.w3.org/2000/svg" xmlns:xlink="http://www.w3.org/1999/xlink" x="0px" y="0px"
	 viewBox="0 0 63.5 63.5" style="enable-background:new 0 0 63.5 63.5;" xml:space="preserve">
<path d="M49.3,4.8H49v-1C49,1.7,47.3,0,45.3,0s-3.8,1.7-3.8,3.8v1H22v-1C22,1.7,20.3,0,18.2,0s-3.8,1.7-3.8,3.8v1h-0.3
	C7.9,4.8,2.7,9.9,2.7,16.3V52c0,6.4,5.2,11.5,11.5,11.5h35.1c6.4,0,11.5-5.2,11.5-11.5V16.3C60.8,9.9,55.6,4.8,49.3,4.8z M43.5,3.8
	c0-1,0.8-1.8,1.8-1.8S47,2.8,47,3.8v4c0,1-0.8,1.8-1.8,1.8s-1.8-0.8-1.8-1.8V3.8z M16.5,3.8c0-1,0.8-1.8,1.8-1.8S20,2.8,20,3.8v4
	c0,1-0.8,1.8-1.8,1.8s-1.8-0.8-1.8-1.8V3.8z M14.2,6.8h0.3v1c0,2.1,1.7,3.8,3.8,3.8S22,9.8,22,7.8v-1h19.5v1c0,2.1,1.7,3.8,3.8,3.8
	S49,9.8,49,7.8v-1h0.3c5.2,0,9.5,4.3,9.5,9.5v2.5H4.7v-2.5C4.7,11,9,6.8,14.2,6.8z M49.3,61.5H14.2c-5.2,0-9.5-4.3-9.5-9.5V20.8
	h54.1V52C58.8,57.2,54.5,61.5,49.3,61.5z M52.7,31.8c0.6,0,1-0.4,1-1s-0.4-1-1-1h-3.5v-3c0-0.6-0.4-1-1-1s-1,0.4-1,1v3h-6.3v-3
	c0-0.6-0.4-1-1-1s-1,0.4-1,1v3h-6.3v-3c0-0.6-0.4-1-1-1s-1,0.4-1,1v3h-6.3v-3c0-0.6-0.4-1-1-1s-1,0.4-1,1v3h-6.3v-3c0-0.6-0.4-1-1-1
	s-1,0.4-1,1v3h-3.5c-0.6,0-1,0.4-1,1s0.4,1,1,1h3.5v7.7h-3.5c-0.6,0-1,0.4-1,1s0.4,1,1,1h3.5v7.7h-3.5c-0.6,0-1,0.4-1,1s0.4,1,1,1
	h3.5v3c0,0.6,0.4,1,1,1s1-0.4,1-1v-3h6.3v3c0,0.6,0.4,1,1,1s1-0.4,1-1v-3h6.3v3c0,0.6,0.4,1,1,1c0.6,0,1-0.4,1-1v-3h6.3v3
	c0,0.6,0.4,1,1,1s1-0.4,1-1v-3h6.3v3c0,0.6,0.4,1,1,1s1-0.4,1-1v-3h3.5c0.6,0,1-0.4,1-1s-0.4-1-1-1h-3.5v-7.7h3.5c0.6,0,1-0.4,1-1
	s-0.4-1-1-1h-3.5v-7.7H52.7z M38.8,31.8v7.7h-6.3v-7.7H38.8z M30.5,31.8v7.7h-6.3v-7.7H30.5z M15.8,31.8h6.3v7.7h-6.3V31.8z
	 M15.8,49.2v-7.7h6.3v7.7H15.8z M24.2,49.2v-7.7h6.3v7.7H24.2z M32.5,49.2v-7.7h6.3v7.7H32.5z M47.2,49.2h-6.3v-7.7h6.3V49.2z
	 M47.2,39.5h-6.3v-7.7h6.3V39.5z"/>
</svg>
