<?xml version="1.0" encoding="utf-8"?>
<!-- Generator: Adobe Illustrator 21.0.0, SVG Export Plug-In . SVG Version: 6.00 Build 0)  -->
<svg version="1.1" id="Capa_1" xmlns="http://www.w3.org/2000/svg" xmlns:xlink="http://www.w3.org/1999/xlink" x="0px" y="0px"
	 viewBox="0 0 512 512" style="enable-background:new 0 0 512 512;" xml:space="preserve">
<g>
	<g>
		<path d="M475.6,189.8c-0.9-0.9-1.8-1.8-2.8-2.7v-28.8c0-28.7-23.3-52-52-52h-91.2V80.2c0-27.9-22.7-50.6-50.6-50.6h-85.4
			c-27.9,0-50.6,22.7-50.6,50.6v26.1H52c-28.7,0-52,23.3-52,52v231.4c0,28.7,23.3,52,52,52h108.5c4.1,0,7.5-3.4,7.5-7.5
			s-3.4-7.5-7.5-7.5H52c-20.4,0-37-16.6-37-37V238.3C29.7,260.1,53.8,275,81.5,277v27.3c0,15.6,12.7,28.3,28.3,28.3
			c15.6,0,28.3-12.7,28.3-28.3v-27.1h125.3c0,0.1,0,0.2,0,0.4c0,25.5,7.7,49.9,21.9,70.5L269.4,364c-5.6-1.6-11.8-0.2-16.2,4.2
			L192,429.4c-12.1,12.1-12.1,31.8,0,43.9c12.1,12.1,31.8,12.1,43.9,0l61.2-61.2c4.4-4.4,5.8-10.6,4.2-16.2l15.9-15.9
			c42.1,29,98.3,29.1,140.6,0.2v9.3c0,20.4-16.6,37-37,37H302.4c-4.1,0-7.5,3.4-7.5,7.5s3.4,7.5,7.5,7.5h118.5c28.7,0,52-23.3,52-52
			v-21.4c0.9-0.9,1.9-1.8,2.8-2.7C524.1,317,524.1,238.3,475.6,189.8L475.6,189.8z M158.1,80.2c0-19.6,16-35.6,35.6-35.6h85.4
			c19.6,0,35.6,16,35.6,35.6v26.1h-16V80.2c0-10.8-8.8-19.6-19.6-19.6h-85.4c-10.8,0-19.6,8.8-19.6,19.6v26.1h-16V80.2z
			 M189.1,106.3V80.2c0-2.5,2.1-4.6,4.6-4.6h85.4c2.5,0,4.6,2.1,4.6,4.6v26.1H189.1z M123.1,281.3H96.5v-25.2
			c0-7.3,6-13.3,13.3-13.3s13.3,6,13.3,13.3V281.3z M109.8,317.6c-7.3,0-13.3-6-13.3-13.3v-8.1h26.6v8.1
			C123.1,311.7,117.1,317.6,109.8,317.6z M138.1,262.3v-6.2c0-15.6-12.7-28.3-28.3-28.3c-15.6,0-28.3,12.7-28.3,28.3v5.9
			C44.3,258.6,15,227.3,15,189.2v-30.9c0-20.4,16.6-37,37-37h368.8c20.4,0,37,16.6,37,37V175c-47.4-32.5-114.2-29-158,14.8
			c-19.8,19.8-32.1,45.1-35.5,72.5L138.1,262.3L138.1,262.3z M225.4,462.7c-6.3,6.3-16.4,6.3-22.7,0c-3-3-4.7-7.1-4.7-11.3
			s1.7-8.3,4.7-11.3l42.4-42.4l22.7,22.7L225.4,462.7z M286.5,401.5l-8.2,8.2L255.6,387l8.2-8.2c0.3-0.3,0.7-0.4,1-0.4
			s0.8,0.1,1,0.4c0,0,0,0,0,0l20.6,20.6C287.1,400,287.1,401,286.5,401.5L286.5,401.5z M292.2,383.9l-10.7-10.7l13.2-13.2
			c1.7,1.9,3.4,3.7,5.2,5.5c1.8,1.8,3.6,3.5,5.5,5.2L292.2,383.9z M310.4,354.9c-20.6-20.6-32-48.1-32-77.3s11.4-56.6,32-77.3
			c42.7-42.7,111.8-42.7,154.5,0c42.7,42.7,42.7,111.8,0,154.5C422.3,397.6,353.1,397.6,310.4,354.9z"/>
		<path d="M470,288c-4-0.9-8,1.7-8.9,5.7c-3.1,14-10.1,26.8-20.3,37.1c-29.3,29.3-76.8,29.3-106.2,0c-29.3-29.3-29.3-76.9,0-106.2
			c29.3-29.3,76.8-29.3,106.2,0c10.2,10.2,17.2,23,20.3,37c0.9,4,4.9,6.6,8.9,5.7c4-0.9,6.6-4.9,5.7-8.9
			c-3.7-16.8-12.1-32.2-24.3-44.4c-35.2-35.2-92.2-35.2-127.4,0c-35.1,35.1-35.1,92.3,0,127.4c35.1,35.1,92.3,35.1,127.4,0
			c12.2-12.2,20.7-27.6,24.3-44.5C476.6,292.8,474,288.8,470,288z"/>
	</g>
</g>
</svg>
