<?xml version="1.0" encoding="utf-8"?>
<!-- Generator: Adobe Illustrator 21.0.0, SVG Export Plug-In . SVG Version: 6.00 Build 0)  -->
<svg version="1.1" id="Capa_1" xmlns="http://www.w3.org/2000/svg" xmlns:xlink="http://www.w3.org/1999/xlink" x="0px" y="0px"
	 viewBox="0 0 512 512" style="enable-background:new 0 0 512 512;" xml:space="preserve">
<g>
	<g>
		<path d="M498.7,366.5c-9.6-14-25.8-17.5-43.4-9.2l-9.3,4.1c14.7-31.4,16.5-66.3,9.2-99.3c-8.4-37.9-28.7-74.6-60.4-109.2
			c-2.8-3.1-7.5-3.3-10.6-0.5c-3.1,2.8-3.3,7.5-0.5,10.6c29.8,32.6,49,67,56.8,102.3c8.2,37.2,3.5,75.5-17.6,106.2l-93.3,41.1
			l0.1-10.5c0-0.3,0-0.5,0-0.8c-2.2-21.7-18.7-38.9-40.3-42c-0.1,0-0.1,0-0.2,0l-83-9.6c-31.9-4.5-40.1-23.7-83.3-34.6
			c-3-25.3,1-52.3,11.9-79.3c16.4-40.7,48.6-80.3,93.1-114.7c16.6,11.8,90.7,13.2,107.3-1.9c8.5,6.4,16.6,13.1,24.1,19.8
			c1.4,1.3,3.2,1.9,5,1.9c2.1,0,4.1-0.8,5.6-2.5c2.8-3.1,2.5-7.8-0.6-10.6c-8.3-7.4-17.2-14.6-26.5-21.7c2.2-9.3-0.9-20.1-9-26.6
			c23.5-35.6,30.3-58.9,20.9-71.1c-6.5-8.4-14.5-4.5-18-2.8c-5.8,2.8-9,3-14.4-0.5c-10.2-6.7-21-6.9-31.6,0c-5.4,3.6-9.7,3.6-15.2,0
			c-10.2-6.7-21-6.9-31.6,0c-5.4,3.6-8.6,3.3-14.4,0.5c-3.4-1.7-11.5-5.7-18,2.7c-9.2,11.9-3.1,34.4,18.8,68.8
			c-1.3,0.7-2.6,1.6-3.8,2.5c-8.7-9.2-23-18.8-43.6-16.5c-17.1,1.9-29.7-3.7-37.3-8.8c-3.4-2.3-8.1-1.4-10.4,2.1
			c-2.3,3.4-1.4,8.1,2.1,10.4c9.7,6.5,25.7,13.7,47.3,11.3c15.9-1.8,26.8,6.4,33.5,14.6c-0.1,0.3-0.2,0.6-0.3,1
			c-5.7,0.1-14.3,0.6-23.8,2.6c-22.7,4.7-39.6,15.5-48.8,31.2c-2.1,3.6-0.9,8.2,2.7,10.3c3.6,2.1,8.2,0.9,10.3-2.7
			c13.7-23.4,47.1-26.2,60.3-26.4c0.1,0.2,0.1,0.3,0.2,0.5c-47.3,36.5-80.2,77.2-97.9,121c-11.2,27.7-15.6,55.5-13.4,81.9
			c-7.2-1.1-14.5-1.6-21.8-1.7v-4.5c0-12-9.8-21.8-21.8-21.8H29.6c-12,0-21.8,9.8-21.8,21.8v174.6c0,12,9.8,21.8,21.8,21.8H64
			c12,0,21.8-9.8,21.8-21.8v-2.1l75.1,27.9c10.1,3.8,20.7,5.7,31.4,5.7h111.9c17.1,0,33.8-4.8,48.2-14
			c149.3-94.6,140.2-88.7,141.1-89.5C505.5,397.8,507.7,379.8,498.7,366.5L498.7,366.5z M321.1,110.3c-27.4,6.9-54.1,6.9-81.5,0
			c-11.8-3-8.4-24,4.3-20.8c24.5,6.2,48.4,6.2,72.9,0C329.2,86.4,333,107.3,321.1,110.3z M222.8,18.9c0.1,0,0.1,0.1,0.2,0.1
			c10.1,5,19,5.3,29.3-1.4c12.8-8.4,14.2,5,30.9,5c8.1,0,12.5-2.9,15.8-5c5.4-3.6,9.7-3.6,15.2,0c10.3,6.7,18.9,6.4,29.4,1.3
			c1.5,5.6-1.9,22.1-24.2,55.2c-11-0.2-27.1,10.7-72.4,0.6C224.7,41.3,221.3,24.5,222.8,18.9L222.8,18.9z M483.9,396.9l-139.5,88.4
			c-12,7.6-25.9,11.7-40.2,11.7H192.3c-9,0-17.8-1.6-26.2-4.7l-80.3-29.9v-80.8c0-4.1-3.4-7.5-7.5-7.5s-7.5,3.4-7.5,7.5v98.9
			c0,3.7-3,6.8-6.8,6.8H29.6c-3.7,0-6.8-3-6.8-6.8V305.9c0-3.7,3-6.8,6.8-6.8H64c3.7,0,6.8,3,6.8,6.8v40.7c0,4.1,3.4,7.5,7.5,7.5
			s7.5-3.4,7.5-7.5v-21.2c62,0.5,76,33.2,118.5,39.2c0.1,0,0.1,0,0.2,0l83,9.6c14.5,2.1,25.7,13.7,27.3,28.2l-0.1,14.3h-77.4
			c-4.1,0-7.5,3.4-7.5,7.5s3.4,7.5,7.5,7.5H322c0.9,0,2-0.2,3-0.6c0.2-0.1,136.3-60,136.4-60.1c9.8-4.4,18.8-5,24.8,3.9
			C491,381.8,489.9,391.2,483.9,396.9z"/>
		<path d="M282.3,340.2c4.1,0,7.5-3.4,7.5-7.5v-12.4c21.1-3.4,33.3-20.5,36-36.4c3.3-19.9-7.1-37.1-26.5-44
			c-3.4-1.2-6.6-2.4-9.5-3.5v-47.8c8.9,1.5,14.2,6.1,14.6,6.4c3,2.8,7.8,2.6,10.6-0.5c2.8-3,2.6-7.8-0.4-10.6
			c-0.5-0.5-9.7-8.8-24.7-10.5v-10.7c0-4.1-3.4-7.5-7.5-7.5c-4.1,0-7.5,3.4-7.5,7.5v11.3c-1.8,0.3-3.7,0.8-5.6,1.4
			c-12.7,3.8-22.2,14.7-24.8,28.5c-2.3,12.5,1.6,24.4,10.3,31.3c5,3.9,11.3,7.5,20.1,11.3v59.3c-8.7-0.4-14-2-23.3-8.1
			c-3.5-2.3-8.1-1.3-10.4,2.2c-2.3,3.5-1.3,8.1,2.2,10.4c12.2,8,20.4,10.1,31.5,10.5v11.9C274.8,336.9,278.2,340.2,282.3,340.2
			L282.3,340.2z M264,223.4c-4.3-3.4-6.1-9.8-4.8-16.7c1.2-6.4,5.6-14.2,14.4-16.9c0.4-0.1,0.8-0.2,1.2-0.3V230
			C270.3,227.7,266.8,225.6,264,223.4z M294.3,254.1c18.7,6.6,17.5,22.6,16.7,27.4c-1.7,9.8-8.9,20.3-21.2,23.5v-52.5
			C291.3,253,292.8,253.5,294.3,254.1L294.3,254.1z"/>
	</g>
</g>
</svg>
