<?xml version="1.0" encoding="utf-8"?>
<!-- Generator: Adobe Illustrator 21.0.0, SVG Export Plug-In . SVG Version: 6.00 Build 0)  -->
<svg version="1.1" id="Layer_1" xmlns="http://www.w3.org/2000/svg" xmlns:xlink="http://www.w3.org/1999/xlink" x="0px" y="0px"
	 viewBox="0 0 512 512" style="enable-background:new 0 0 512 512;" xml:space="preserve">
<style type="text/css">
	.st0{fill:#094D7F;}
	.st1{fill:#FFFFFF;}
</style>
<rect x="-24.4" y="-18" class="st0" width="550.5" height="559.5"/>
<image style="overflow:visible;" width="1366" height="768" xlink:href="80CAB19E.jpg"  transform="matrix(1 0 0 1 -7851 -7950.1099)">
</image>
<path class="st1" d="M305.8,394.2l65.9-89.9c29.5-40.2,55.9-80.6,55.9-132.5C427.6,77.3,350.9,0.4,256.5,0h-0.7
	C161.1,0,84,77.1,84,171.8c0,51.9,26.4,92.3,55.9,132.5l65.9,89.9h-76.6L84.8,512h342.1l-44.4-117.8H305.8z M164.1,286.6
	c-27.4-37.4-50.1-71.8-50.1-114.7c0-78,63.3-141.4,141.1-141.8h0.7c78.2,0,141.8,63.6,141.8,141.8c0,42.9-22.7,77.4-50.1,114.7
	c0,0-88,120.3-91.6,125.2L164.1,286.6z M128.1,482l21.8-57.8h77.9l27.7,37.8c0,0,23.2-30.5,28.5-37.8h77.7l21.8,57.8H128.1z"/>
<path class="st1" d="M361.6,171.8c0-58.3-47.5-105.8-105.8-105.8S150,113.5,150,171.8s47.5,105.8,105.8,105.8
	S361.6,230.1,361.6,171.8z M255.8,247.6c-41.8,0-75.8-34-75.8-75.8S214,96,255.8,96s75.8,34,75.8,75.8S297.6,247.6,255.8,247.6z"/>
</svg>
