<?xml version="1.0" encoding="utf-8"?>
<!-- Generator: Adobe Illustrator 21.0.0, SVG Export Plug-In . SVG Version: 6.00 Build 0)  -->
<svg version="1.1" id="Layer_1" xmlns="http://www.w3.org/2000/svg" xmlns:xlink="http://www.w3.org/1999/xlink" x="0px" y="0px"
	 viewBox="0 0 512 512" style="enable-background:new 0 0 512 512;" xml:space="preserve">
<g id="Page-1">
	<g id="_x30_03---Call" transform="translate(-1)">
		<path id="Shape" d="M213,300c-48.9-48.9-59.9-97.7-62.4-117.3c-0.7-5.4,1.2-10.8,5-14.7l39.5-39.5c5.8-5.8,6.8-14.9,2.5-21.8
			l-63-97.8c-4.8-7.7-14.7-10.5-22.9-6.4L10.8,50C4.2,53.2,0.3,60.2,1.1,67.5c5.3,50.3,27.2,174,148.8,295.6
			s245.2,143.5,295.6,148.8c7.3,0.7,14.3-3.1,17.5-9.7l47.6-101.1c4.1-8.1,1.3-18-6.4-22.8l-97.8-62.9c-7-4.4-16-3.3-21.8,2.5
			L345,357.3c-3.8,3.9-9.3,5.7-14.7,5C310.8,359.9,261.9,348.9,213,300L213,300z"/>
		<path id="Shape_1_" d="M407.1,273.7c-9.8,0-17.7-7.9-17.7-17.7c-0.1-73.1-59.3-132.3-132.4-132.4c-9.8,0-17.7-7.9-17.7-17.7
			s7.9-17.7,17.7-17.7c92.6,0.1,167.6,75.1,167.7,167.7C424.7,265.8,416.8,273.7,407.1,273.7z"/>
		<path id="Shape_2_" d="M495.3,273.7c-9.8,0-17.7-7.9-17.7-17.7C477.6,134.2,378.8,35.4,257,35.3c-9.8,0-17.7-7.9-17.7-17.7
			S247.2,0,257,0c141.3,0.2,255.8,114.7,256,256c0,4.7-1.9,9.2-5.2,12.5C504.5,271.8,500,273.7,495.3,273.7z"/>
	</g>
</g>
</svg>
