<?xml version="1.0" encoding="utf-8"?>
<!-- Generator: Adobe Illustrator 21.0.0, SVG Export Plug-In . SVG Version: 6.00 Build 0)  -->
<svg version="1.1" id="Layer_1" xmlns="http://www.w3.org/2000/svg" xmlns:xlink="http://www.w3.org/1999/xlink" x="0px" y="0px"
	 viewBox="0 0 379.6 379.6" style="enable-background:new 0 0 379.6 379.6;" xml:space="preserve">
<style type="text/css">
	.st0{fill:url(#SVGID_1_);}
	.st1{fill:#094D7F;}
	.st2{fill:#EE4623;}
	.st3{opacity:0.3;fill:#094D7F;}
</style>
<g>
	<g>
		<linearGradient id="SVGID_1_" gradientUnits="userSpaceOnUse" x1="26.2725" y1="198.575" x2="147.3139" y2="198.575">
			<stop  offset="7.046950e-03" style="stop-color:#2A2C6B"/>
			<stop  offset="0.1024" style="stop-color:#2A316E"/>
			<stop  offset="0.2613" style="stop-color:#2B4078"/>
			<stop  offset="0.4641" style="stop-color:#2C5689"/>
			<stop  offset="0.7028" style="stop-color:#2D75A4"/>
			<stop  offset="0.9691" style="stop-color:#27A4D1"/>
			<stop  offset="1" style="stop-color:#25ABD8"/>
		</linearGradient>
		<path class="st0" d="M147.3,82.9V49.1c0-0.7-0.5-1.2-1.2-1.2C79.8,48.6,26.3,104,26.3,172.2c0,54,33.6,100,80.5,117.1
			c0.2,0.1,0.4,0.2,0.6,0.5l37.9,58.9c0.6,1,2.1,0.5,2.1-0.7v-51.5v-36.2c0,0-2,0-2.9,0c-46.1-1.4-82.9-40.3-82.9-88
			c0-48.3,37.8-87.4,84.6-88.1C146.8,84.1,147.3,83.6,147.3,82.9z"/>
	</g>
	<g>
		<path class="st1" d="M163.2,85h-8.8v-37h11.4c3.1,0,5.4,0.2,6.9,0.6c1.6,0.4,2.9,1.1,4.1,2.1c3,2.5,4.4,5.9,4.4,10.2
			c0,3.1-0.8,5.7-2.4,7.7c-1.6,2.1-3.8,3.4-6.5,3.9l9.8,12.6h-10.5l-8.4-12V85z M163.2,56.3v10.2h3.2c4,0,6-1.7,6-5.2
			c0-3.3-2-5-5.9-5H163.2z"/>
		<path class="st1" d="M206.1,85h-20v-37h20v8.4h-11.2V62h10.9v8.4h-10.9v6.2h11.2V85z"/>
		<path class="st1" d="M225.6,85h-14.2v-37h12.1c4.8,0,8.6,0.9,11.4,2.7c1.7,1.1,3.2,2.5,4.4,4.3c2.2,3.1,3.3,7,3.3,11.4
			c0,5.6-1.6,10.1-4.6,13.5C234.8,83.3,230.7,85,225.6,85z M220.6,56.3v20.3h3.9c5.9,0,8.8-3.3,8.8-10c0-3.3-0.8-5.8-2.3-7.6
			c-1.5-1.8-3.7-2.7-6.5-2.7H220.6z"/>
		<path class="st1" d="M256.4,85h-9.2v-37h9.2V85z"/>
		<path class="st1" d="M276.1,85h-9.2V56.3h-7.1v-8.4h23.5v8.4h-7.1V85z"/>
	</g>
	<g>
		<path class="st2" d="M215.8,203.7V142h8.3l13,37.2h0.2V142h8.6v61.8h-8.1l-13.2-37.1h-0.2v37.1H215.8z"/>
		<path class="st2" d="M260.1,203.7V142h25.7v8.3h-17.1v18.1h14.9v8.3h-14.9v18.1h17.1v8.9H260.1z"/>
	</g>
	<g>
		<g>
			<path class="st2" d="M145.4,112.2c-32.6,0-59.1,27.2-59.1,60.7c0,33.5,26.5,60.7,59.1,60.7s59.1-27.2,59.1-60.7
				C204.5,139.3,178,112.2,145.4,112.2z M145.4,208.6c-0.7,0-1.3-0.1-1.9-0.1c-4.6,10-16.4,11.3-21.8,11.4c-0.7,0-0.9-0.9-0.3-1.2
				c5.8-3.2,8.4-9.5,9.5-13.4c-11.9-5.7-20.2-18-20.2-32.4c0-19.7,15.6-35.7,34.8-35.7s34.8,16,34.8,35.7
				C180.2,192.6,164.6,208.6,145.4,208.6z"/>
		</g>
	</g>
	<g>
		<path class="st1" d="M150.9,180.4l-12.2-12.5c-1.7-1.7-2.6-4.1-2.6-6.5c0-2.5,0.9-4.8,2.6-6.5c1.1-1.2,2.6-2,4.1-2.4l1.1-0.3
			c0-3,0-7.7,0-8.9l0-1.8l-1.7,0.3c-4.1,0.6-7.9,2.6-10.8,5.6c-3.7,3.7-5.7,8.7-5.7,14c0,5.3,2,10.3,5.7,14l12.2,12.5
			c1,1,2.3,1.6,3.7,1.6c1.4,0,2.7-0.6,3.7-1.6C152.9,185.8,152.9,182.4,150.9,180.4z"/>
	</g>
	<path class="st1" d="M162.1,153.6l-6.3-6.5c-2.3-2.4-5.3-4.2-8.5-5.1l-1.9-0.5v11l0.8,0.4c0.8,0.4,1.6,1,2.3,1.7l6.3,6.5
		c1,1,2.3,1.6,3.7,1.6c0,0,0,0,0,0c1.4,0,2.7-0.6,3.7-1.6C164.1,159,164.1,155.7,162.1,153.6z"/>
	<path class="st3" d="M151.2,180.8c-0.1-0.1-0.2-0.3-0.4-0.4l-12.2-12.5c-1.7-1.7-2.6-4.1-2.6-6.5c0-2.5,0.9-4.8,2.6-6.5
		c0.1-0.1,0.3-0.3,0.4-0.4c1.1-0.9,2.3-1.6,3.7-2l1.1-0.3c0-1.9,0-4.4,0-5.1l0-1.8l-1.7,0.3c-3.1,0.6-5.9,2.1-8.2,4.4
		c-6.1,6.3-6.1,16.4,0,22.7l15.7,16.1c0.3-0.1,0.5-0.3,0.7-0.5l0.1-0.1l0,0c0.1-0.1,0.2-0.2,0.3-0.3
		C152.8,185.9,152.9,182.8,151.2,180.8z"/>
	<path class="st3" d="M155.2,161.3c0.1,0.1,0.3,0.2,0.5,0.3c0.8,0.6,1.8,0.9,2.8,0.9c0,0,0,0,0,0c1.4,0,2.7-0.6,3.7-1.5l0,0
		c0.4-0.4,0.7-0.8,0.9-1.2l-9.8-10.1c-1.7-1.7-3.6-3-5.8-3.8l-2-0.7v7.2l0.8,0.4c0.8,0.4,1.6,1,2.3,1.7l6.3,6.5
		C154.9,161,155,161.1,155.2,161.3C155.2,161.3,155.2,161.3,155.2,161.3z"/>
	<path class="st1" d="M160.9,170.3l-12.2-12.5c-1-1-2.3-1.6-3.7-1.6c-1.4,0-2.7,0.6-3.7,1.6c-2,2.1-2,5.4,0,7.5l12.2,12.5
		c1.7,1.7,2.6,4.1,2.6,6.5c0,2.5-0.9,4.8-2.6,6.5c-1.1,1.2-2.6,2-4.1,2.4l-1.1,0.3v10.7l1.7-0.3c4.1-0.6,7.9-2.6,10.8-5.6
		c3.7-3.7,5.7-8.7,5.7-14C166.5,179.1,164.5,174.1,160.9,170.3z"/>
	<path class="st3" d="M156.2,184.4c0,2.5-0.9,4.8-2.6,6.5c-1.1,1.2-2.6,2-4.1,2.4l-1.1,0.3v6.9l1.8-0.3c3.1-0.6,5.9-2.1,8.2-4.4
		c6.1-6.3,6.1-16.4,0-22.7l-15.7-16.1c-0.4,0.2-0.8,0.5-1.2,0.9c-0.1,0.1-0.2,0.2-0.3,0.3c0,0,0,0-0.1,0.1c-0.1,0.1-0.1,0.2-0.2,0.3
		c0,0-0.1,0.1-0.1,0.1c-0.1,0.1-0.1,0.2-0.1,0.3c0,0.1-0.1,0.1-0.1,0.2c0,0.1-0.1,0.1-0.1,0.2c0,0.1-0.1,0.2-0.1,0.3
		c0,0.1,0,0.1-0.1,0.2c0,0.1-0.1,0.2-0.1,0.3c0,0,0,0.1,0,0.1c0,0.1-0.1,0.2-0.1,0.4c0,0,0,0.1,0,0.1c0,0.1,0,0.3-0.1,0.4
		c0,0,0,0.1,0,0.1c0,0.1,0,0.2,0,0.4c0,0.1,0,0.2,0,0.2c0,0.1,0,0.2,0,0.3c0,0.1,0,0.3,0.1,0.4c0,0,0,0.1,0,0.1c0.2,1,0.7,2,1.4,2.7
		l12.2,12.5C155.3,179.6,156.2,181.9,156.2,184.4z"/>
	<path class="st1" d="M130,191.9l6.1,6.7c2.3,2.5,5.2,4.3,8.4,5.3l1.9,0.6l0.3-11l-0.8-0.4c-0.8-0.5-1.6-1.1-2.2-1.8l-6.1-6.7
		c-0.9-1-2.2-1.6-3.6-1.7c0,0,0,0,0,0c-1.4,0-2.7,0.5-3.7,1.4C128.2,186.4,128.1,189.7,130,191.9z"/>
	<path class="st3" d="M137.2,184.2c-0.1-0.1-0.3-0.2-0.4-0.4c-0.8-0.6-1.8-0.9-2.8-0.9c0,0,0,0,0,0c-1.4,0-2.7,0.5-3.7,1.4l0,0
		c-0.4,0.4-0.7,0.8-0.9,1.2l9.5,10.4c1.6,1.7,3.5,3.1,5.7,3.9l2,0.8l0.2-7.2l-0.8-0.4c-0.8-0.5-1.6-1.1-2.2-1.8l-6.1-6.7
		C137.4,184.4,137.3,184.3,137.2,184.2C137.2,184.2,137.2,184.2,137.2,184.2z"/>
</g>
</svg>
