<?xml version="1.0" encoding="utf-8"?>
<!-- Generator: Adobe Illustrator 21.0.0, SVG Export Plug-In . SVG Version: 6.00 Build 0)  -->
<svg version="1.1" id="Capa_1" xmlns="http://www.w3.org/2000/svg" xmlns:xlink="http://www.w3.org/1999/xlink" x="0px" y="0px"
	 viewBox="0 0 477.9 477.9" style="enable-background:new 0 0 477.9 477.9;" xml:space="preserve">
<g>
	<g>
		<path d="M392.5,238.9c-9.4,0-17.1,7.6-17.1,17.1v170.7c0,9.4-7.6,17.1-17.1,17.1H51.2c-9.4,0-17.1-7.6-17.1-17.1V85.3
			c0-9.4,7.6-17.1,17.1-17.1H256c9.4,0,17.1-7.6,17.1-17.1s-7.6-17.1-17.1-17.1H51.2C22.9,34.1,0,57.1,0,85.3v341.3
			c0,28.3,22.9,51.2,51.2,51.2h307.2c28.3,0,51.2-22.9,51.2-51.2V256C409.6,246.6,402,238.9,392.5,238.9z"/>
	</g>
</g>
<g>
	<g>
		<path d="M458.7,19.1C446.5,6.9,429.9,0,412.5,0c-17.3-0.1-34,6.8-46.2,19.1L141.5,243.9c-1.9,1.9-3.3,4.2-4.1,6.7L103.3,353
			c-3,8.9,1.9,18.6,10.8,21.6c1.7,0.6,3.6,0.9,5.4,0.9c1.8,0,3.7-0.3,5.4-0.9l102.4-34.1c2.5-0.8,4.8-2.3,6.7-4.1l224.8-224.8
			C484.3,86,484.3,44.7,458.7,19.1z"/>
	</g>
</g>
</svg>
