<?xml version="1.0" encoding="utf-8"?>
<!-- Generator: Adobe Illustrator 21.0.0, SVG Export Plug-In . SVG Version: 6.00 Build 0)  -->
<svg version="1.1" id="Layer_1" xmlns="http://www.w3.org/2000/svg" xmlns:xlink="http://www.w3.org/1999/xlink" x="0px" y="0px"
	 viewBox="0 0 512 512" style="enable-background:new 0 0 512 512;" xml:space="preserve">
<path d="M486.3,51.6H25.8C11.6,51.6,0,40,0,25.8v0C0,11.5,11.6,0,25.8,0l460.4,0C500.5,0,512,11.5,512,25.8v0
	C512,40,500.5,51.6,486.3,51.6z"/>
<path d="M488.3,281.7H27.8C13.6,281.7,2,270.2,2,256v0c0-14.2,11.5-25.8,25.8-25.8h460.4c14.2,0,25.8,11.5,25.8,25.8v0
	C514,270.2,502.5,281.7,488.3,281.7z"/>
<path d="M486.3,511.9H25.8C11.6,511.9,0,500.4,0,486.2v0c0-14.2,11.5-25.8,25.8-25.8h460.4c14.2,0,25.8,11.5,25.8,25.8v0
	C512,500.4,500.5,511.9,486.3,511.9z"/>
</svg>
